<?xml version="1.0" encoding="UTF-8"?>
<svg xmlns="http://www.w3.org/2000/svg" viewBox="0 0 640 640">
  <defs>
    <style>
      .cls-1 {
        mix-blend-mode: exclusion;
      }

      .cls-2 {
        fill: #000105;
      }

      .cls-3 {
        fill: #fff;
      }

      .cls-4 {
        isolation: isolate;
      }

      .cls-5 {
        fill: #8f00ff;
      }
    </style>
  </defs>
  <g class="cls-4">
    <g id="_Слой_1" data-name="Слой 1">
      <rect class="cls-2" width="640" height="640" rx="159.95" ry="159.95"/>
      <g>
        <path class="cls-3" d="M616.75,184.76c-5.89,32.58-28.67,37.47-57.3,41.93-24,3.73-48.47,3.55-72.65,5.48,2.58-11.83,17.28-7.73,26.75-10.99,2.23-.77,5.69-3.08.49-3.04-34.9,4.73-69.66,10.67-102.75,22.85l18.44,3.47,34.23.04c-13.07,22.6-45,6.38-66.73,10.5l5.26-6.14c.28-1.3-1.83-1.2-2.6-.86-2.84,1.27-19.56,17.52-22.88,21.04-4.86,5.15-11.93,13.44-14.9,19.34,6.55-3.39,17.97,3.58,26.33,2.63-8.3,11.49-18.23,7.78-29.84,4.38,1.95-2.07,2.36-4.73,3.51-7-3.88,2.01-3.97,4.13-6.29,7.13l-13.01-5.35c18.75-5.95,26.56-26.47,39.51-38.65,40.46-38.03,133.65-31.05,185.63-46.18,17.78-5.18,33.97-13.06,48.79-24.09-.09,1.14.19,2.44,0,3.51Z"/>
        <path class="cls-3" d="M177.72,253.26c-8.36.04-15.65-3.92-23.68-5.3l6.11,5.28c-39.74-.65-102.34,14.98-121.16-31.58,4.18-.29,5.72,3.9,9.29,5.62,9.67,4.65,31.35,7.57,42.53,8.39,2.09.15,9.61,1.48,9.63-1.71-31.47-1.2-72.12-9.19-73.73-47.44,52.63,42.2,125.12,38.02,188.47,47.71,48.61,7.44,88.16,25,115.25,67.4l12.35,6.06c-6.27.97-10.68,2.65-13.15,8.8l-28.11-26.33c-.92,8.45-13.91,11.34-21.25,12.09-11.22,1.15-21.74-1.81-32.29-5.09l17.54-5.23c-9.49-.61-23.3-.85-29.84-8.78,8.7-2.39,17.87-2.52,26.73-4.02,11.61-1.96,18.48-9.73,27.67,3.12l-14.01,7.89c5.35,1.32,10.6-3.3,15.08-3.45,2.69-.09,6,2.99,7.73.84-43.21-51.88-112.07-44.97-172.08-57.07l20.64,6.56,54.85,7.5-22.44,6.5c-1.6-.16-2,2.19-2.14,2.26,9.95-.05,20.61-6.16,30.74-7,5.61-.46,33.3.99,18.43,7.88-5.59,2.59-23.44,7.9-28.98,7.9h-28.1l-2.6-2.63c-.01-1.12,8.55-5.11,10.5-6.15Z"/>
        <path class="cls-3" d="M233.92,316.49c-9.01.56-14.43-1.15-22.83-3.53-4.6-5.03,17.19-7.6,18.98-8.23,4.77-1.66,9.38-4.88,13.86-7.24l14.56,6.72-24.57,12.27c13.02-.81,19.42-8,28.08-9.8,4.16-.87,24.43,8.68,29.79,10.76,2.26.88,4.73.81,7.1.82l-5.28,7.85,7,5.3-8.75,4.42c3.52,12.47,12.73,4.81,20.11,5.3,3.54.23,7.32,4.05,11.49,3.47.41,2.54-3.09,2.44-4.9,2.96-14.45,4.12-38.59,12.87-52.25,12.96-2.47.02-4.97-.22-6.97-1.85l-.84,3.48h25.46c3.8,0,8.62-6.86,14.01-7.19,7.06-.43,37.63,9.11,42.27,14.12,2.47,2.67,3.31,5.1,2.38,8.73l-11.24,3.68,6.12-8.79-8.74,3.51-5.28-8.78c1.26,5.94,2.94,11.57-5.28,12.28l1.74-8.76-5.23,3.51c.17-5.68-2.94-9.66-7.01-13.21-6.91-3.46-5.41,10.21-5.29,13.2l3.52-7.02c5.14,1.63,2.07,6.95,3.31,11.43s4.74,8.52,7.18,12.34c4.59,2.93,10.87-6.27,17.11-7.56,17.03-3.54,26.13,3.24,18.34,20.1-6.45,13.96-11.6,15.66-21.5,24.16-6.71,5.76-13.72,17.22-21.79,23.87-20.96,17.28-32.59,1.5-24.46-20.94,1.47-4.06,7.5-9.59,7.67-10.21.7-2.6-.27-5.6,1-9.22,2.24-6.38,15.32-13.28,14.74-16.51l-6-6.07-16.7,8.45,8.76-12.28c-7.46,4.45-11.33,9.05-21.06,7.02-1.5-6.28,3.79-5.59,7.08-9.6,2.28-2.79,3.53-6.54,5.22-9.69-5.61-1.49-5.92,7.62-7.29,8.49-2.3,1.46-10.37-.44-13.77.29l6.07,1.72c3.76,3.52-1.98,3.79-4.35,6.06-7.93,7.6-19.48,25.01-30.53,23.83-8.33-.89-23.18-2.81-30.87-6.18-2.04-.89-3.92-1.6-5.28-3.5,14.61-3.15,23.08-17.28,30.54-29.15,1.37-2.18,3.4-3.88,2.8-6.84-8.61,8.58-24.11,33.55-37.47,32.86-3.94-.21-8.36-3.36-7.75-8.04,7.92,1.49,11.54-5.18,17.16-9.86,10.52-8.79,20.99-22.23,30.82-32.48,1.43-1.49,2.34-3.23,2.56-5.29l3.49.87.86,9.65,15.83-12.24,2.62,5.2-12.26,7.93,8.74,4.37-3.49-4.35c10.03-11.02,27.42-8,38.61-17.6-8.3.26-15.88,5.05-24.58,5.41-2.53.1-3.23,1.22-5.25-1.91,5.13-10.89,16.76-15.64,28.08-16.68.3-3.32-5.59-1.6-7.43-1.28-4.79.85-10.09,2.48-14.22,5.1-7.77,8.34-14.96,14.63-25.75,19.02l8.96-14.73,22.63-15.1c-14.66,4.92-27.1,8.28-42.14,1.71l1.76-3.49ZM276.05,369.19c-9.6,1.68-19.13,3.89-28.08-1.01l-10.52,16.8,11.71-12.12,14.62,1.6c-2.97,5.13-14.44,8.58-13.18,15.78,5.8-6.48,10.95-11.27,19.41-14.02l6.05-7.03ZM319.95,411.3c.26-11.7-10.75-10.03-14.1-.86l2.82,4.34,11.29-3.48ZM311.18,418.37c-12.2-.36-20.47,5.58-26.33,15.77,4.26-2.26,17.27-4.74,19.93-6.86,1.63-1.3.99-3.79,2.13-5.25,1.56-2,4.71-1.04,4.27-3.66ZM300.64,434.17l-15.49,5.55-.29,6.73c4.9,3.44,17.97-10.32,15.79-12.28Z"/>
        <path class="cls-3" d="M395.48,330.54l1.77,3.5c-24.89-4.81-63.81,34.84-86.08,20.23-.84-.55-2.29-2.27-1.74-2.64,8.4,1.51,14.33-3.44,22.1-5.14,9.45-2.07,27.3.93,28.85-14.21l12.26,1.75-5.25-1.76,11.8-10.27,21.56,3.25c-1.12-5.68-10.99-2.52-12.29-3.51l1.75-5.24c-12.42,1.19-13.95-13.71-28.11-10.57l1.78-3.49c-.92,1.68-16.39-4.47-10.35.64,1.77,1.5,5.59,5.88,6.19,6.08,3.87,1.25,11.24-1.77,12.93,2.04-15.89-1.15-23.82,14.2-40.38,7.03.93-8.76,12.62-9.03,19.31-8.78.53-4.61-.05-2.78-2.58-3.54-6.96-2.07-19-3.44-20.23-12.25,16.94-1.18,32.45,7.31,48.76,10.05,25.14,4.23,49.64-2.4,70.79,15.64,1.01,6.2-9.32,15.95-15.95,14.67l.08-6.2-19.41-3.45,19.34-2.65v-8.76c-7.68-.75-16.07-3.16-23.69-3.65-4.88-.32-9.33,1.91-12.43,1.74-3.33-.17-4.24-4.08-7.77-3.36l1.03,5.29,15.56-.15,1.92,5.51,23.62-3.61c-5.4,7.55-16.41,7.26-24.58,7.02.73,8.16,13.86,6.15,19.79,7.41,7.96,6.93-.3,1.36-1.36,1.36h-28.98Z"/>
        <path class="cls-3" d="M467.49,242.7l15-8.69c40.94-2.13,91.37,2.72,125.47-22.91,2.78,21.48-23.19,30.76-40.31,34.31-32.29,6.7-67.02-6.24-100.15-2.71Z"/>
        <path class="cls-3" d="M460.47,256.77l8.24-10.57c39.84-2.47,82.24,13.32,119.93-5.23-6.14,42.09-61.56,19.46-88.88,16.02-12.02-1.52-27.6-2.75-39.29-.22Z"/>
        <path class="cls-3" d="M565.81,267.32c-10.75,32.17-54.98,7.59-78.58,3.95-14.69-2.27-29.49-2.5-44.33-2.22l3.53-6.1-5.28-4.4c14.67.68,30.17-1,44.75,0,26.69,1.83,53.06,14.09,79.92,8.77Z"/>
        <path class="cls-3" d="M177.72,274.34c-2.84.38-5.52.17-8.81.79-24.1,4.57-68,37.86-80.74.97,11.02,2.85,22.42,1.41,33.45-.79,3.03-.6,10.74-1.72,12.19-4.47-27.09,5.07-61.06,9.62-73.75-21.08,32.75,15.09,67.84,4.58,102.61,6.89l4.5,7.13-7.02,1.77h24.59l.02,7.02-7.05,1.76c9.67-1.31,31.05-6.01,33.37,5.25-32.16-1.68-58.55,39.06-89.55,17.55-.73-4.47.39-2.72,2.44-3.65,16.63-7.52,37.97-10.63,53.74-19.15Z"/>
        <path class="cls-3" d="M237.43,269.07c-12.49,1.68-32.61,3.19-44.85,1.82-2.63-.29-5.42-.36-6.08-3.56,8.92-2.26,19.46-3.51,28.11-6.15,16.85-5.13,28.91-17.59,43.88.84l-21.07,7.04c2.85-.38,5.51-.14,8.81-.8,4.37-.87,13.68-6.13,16.39-5.87,1.51.14,15.87,7.9,11.7,11.07-5.43,2.13-11.26,3.14-16.98,4.1-7,1.17-18.66.72-23.95,2-1.65.4-2.02,3.82-3.99,5.11-7.6,4.94-27.27,6.05-34.12,15.98,9.1-1.97,27.51-14.43,36.09-13.97.58.03,8.12,4.16,10.41,5.23,1.76.82,3.51-1.46,2.67,3.47-17.57,4.77-35.79,15.91-54.45,10.52l1.77-3.46c-10.38,3.06-19.12,5-29.86,1.73-4.35-4.69,24.87-16.18,27.63-17.14,12.89-4.44,27.22-7.7,40.84-7.46l-17.54-5.23,24.57-5.29Z"/>
        <path class="cls-3" d="M527.19,284.89c-4.6,8.24-14.77,11.14-23.64,10.54l-83.48-21.07c7.98,1.41,14.36-3.34,21.92-3.66,13.8-.58,40.46,2.38,53.95,5.9,10.53,2.74,20.01,9.37,31.24,8.29Z"/>
        <path class="cls-3" d="M381.44,270.81c.64-5.68,8.12-11.37,13.26-12.18,6.34-1,48.05-1.02,48.16,6.05-16.41,12.83-41.81,7.12-61.42,6.14Z"/>
        <path class="cls-3" d="M469.23,288.41c-2.24,11.03-18.77,5.96-27.2,6.99l-36-10.5,9.63-7.24,53.57,10.75Z"/>
        <path class="cls-3" d="M486.8,225.18c-4.35,6.35-18.67,15.65-25.85,17.14-10.79,2.24-24.2-3.47-35.61-1.37.48-3.02,3.49-3.06,5.66-3.98,16.33-6.87,38.24-9.48,55.8-11.79Z"/>
        <path class="cls-3" d="M369.14,284.85c-.36-15.73,40.31-11.66,40.35-6.13-10.74,10.82-26.76,11.86-40.35,6.13Z"/>
        <path class="cls-3" d="M391.97,295.41c-3.61-6.57,5.19-7.31,9.58-7.08,6.26.34,28.91,6.33,35.4,8.64,1.9.67,4.98.95,2.43,3.68-7.05,7.52-38.11-5.5-47.41-5.24l24.58,8.76-35.1-1.75c-1.13-4.72,7.14-6.92,10.53-7.02Z"/>
        <path class="cls-3" d="M348.06,321.77l-14.01,11.4,5.22,4.37c-8.81,4.67-12.8,4.97-22.81,3.53-3.45-2.86,16.81-14.45,17.55-17.54l-19.31-1.79c8.65-11.46,21.09,3.87,33.36.04Z"/>
        <path class="cls-3" d="M381.43,316.5c-11.29,12.87-25.66,16.41-42.14,17.54-1.07-4.57,1.4-3.07,3.32-4.52,10.36-7.83,12.18-5.68,24.76-4.27-2.67-4.28-11.5-3.2-15.8-3.51,7.48-10.11,19.34-6.73,29.85-5.23Z"/>
        <path class="cls-3" d="M309.41,305.91c-11.7,4.43-24.77,5.05-36.85,1.77,2.25-5.29,9.33-2.91,14.14-4.28,8.86-2.51,22.21-12.78,22.72,2.51Z"/>
        <path class="cls-3" d="M274.27,393.83c-2.63,10-12.14,17.59-22.78,15.73l14.07-14.95,1.76-4.36,6.95,3.58Z"/>
        <path class="cls-3" d="M312.93,318.25c.36.37-.93,4.01,1.04,5.43,3.59,2.6,11.2-.34,13.01,3.32-9.38,2.8-21.43,3.23-29.81-2.61.05-2.25,14.5-7.41,15.76-6.14Z"/>
        <path class="cls-3" d="M321.72,314.71c-7.32,1.61-14.38,2.28-21.93,1.75-2.07-.15-9.41-.66-9.67-3.47,12.08,1.64,23.39-11.43,31.6,1.72Z"/>
        <path class="cls-3" d="M356.84,334.07c-4.63,7.84-13.81,11.66-22.83,10.5,5.65-7.96,13.77-9.28,22.83-10.5Z"/>
        <path class="cls-3" d="M316.45,332.31c-3.41,6.85-10.67,7.65-17.56,6.99,4.76-10.29,7.44-8.83,17.56-6.99Z"/>
      </g>
      <g class="cls-1">
        <g>
          <path class="cls-5" d="M464.7,269.1l.1-3.26c.42,10.54.21,21.67-.09,32.73,2.42-12.09,4.6-25.19,4.77-37.4.08-6.11-.4-12.05-1.55-17.54-1.15-5.5-3.22-10.66-6.11-15.2,3.2-.98,5.6-7.11,7-13.03,1.54-5.88,2.12-11.55,1.34-11.81-.48-2.34-.97-4.73-1.29-7.09-.31-2.36-.58-4.75-.8-7.14.25,3.3.46,6.55.92,9.82-.47-3.27-.68-6.52-.92-9.82-.94-8.64-.65-17.35-.11-26.28l-32.28.63c2.69,11.78,4.91,23.94,7.56,36.27,1.21,6.2,2.65,12.4,4,18.69.64,3.16,1.48,6.27,2.21,9.43.78,3.15,1.45,6.34,2.32,9.49,2.56,9.79,8.27,27.72,15.19,45.34,1.74,4.4,3.42,8.83,5.27,13.05.9,2.12,1.78,4.22,2.64,6.26.43,1.02.86,2.04,1.28,3.04.45.99.88,1.96,1.32,2.93,1.71,3.86,3.32,7.47,4.76,10.72.75,1.61,1.45,3.13,2.1,4.55.32.71.63,1.4.93,2.05.58,1.19,1.14,2.34,1.67,3.42,2.5,5.17,5.31,10.14,8.18,15.12-2.28-4.27-3.42-6.32-4.49-8.5-.54-1.07-1.08-2.14-1.75-3.48-.64-1.35-1.4-2.97-2.42-5.12,3.16,5.02,6.39,9.64,9.5,13.86,3.03,4.15,5.99,8.22,8.9,12.22,2.81,4.05,5.63,7.25,8.3,10.63,2.68,3.33,5.25,6.57,7.76,9.77-.81-2.01-1.25-3.45-1.95-5.36-.69-1.91-1.66-4.29-3.41-8.02l4.59,7.9c2.36,1.19,5.84,5.01,9.25,9.19,1.69,2.1,3.4,4.2,4.95,6.13,1.58,1.92,2.99,3.56,4.02,4.54-.57,1.59,3.17,7.38,6.56,12.53l-1.69-3.98c.6.89,1.21,1.79,1.82,2.71l.46.68.23.34c.04.05.08.12.12.16l.09.06c.24.16.49.31.74.48.96-4.75,1.91-9.84,2.83-15.02.93-5.18,1.84-10.45,2.67-15.52,1.69-10.04,3.33-19.78,4.78-28.36.44-2.63,1.21-4.11,1.83-4.91.74-6.52,1.47-12.83,2.03-19.12.78,1.12,1.75-2.63,2.49-5.62.74-2.94,1.29-5.09,1.18-.25,0-.96,0-1.91.03-2.85.02-.54,0-.77,0-1.07l-.02-.88c-.01-1.17.02-2.33.07-3.49.12-2.31.28-4.61.48-6.9.36-4.57.73-9.08.15-13.57,3.53-31.08,5.2-64.31,4.47-96.6l-.75.73c-.18-5.66-1.02-11.02-1.55-16.66-.51-5.64-.72-11.56.32-18.33-1.81-9.89-2.27-23.81-5.89-27.91.15-11.25-1.52-15.85-1.86-26.91-2.08,2.72-1.67-10.83-3.48-5.5-3.11,7.14-.86,7.68-3.38,13.75l.65-.15c-4.59,28.74-8.04,57.5-11.16,86.52.11,19.54-3.06,40.43-4.7,60.53-.79,10.83-1.61,22.1-2.4,32.99-.39,5.45-.77,10.8-1.13,15.95-.05.64-.09,1.28-.14,1.92l-.03.48c-.01.16-.03.35-.02.36l.02.33c.03.46.06.91.09,1.35.06.99.11,1.96.16,2.9.12,1.02-.24,1.6-.73,1.84-.49.26-1.12.19-1.58.24,0,1.95-.27,4.02-.54,6.11-.28,2.1-.68,4.2-1.02,6.49-.03.13-.03.37-.08.41l-.24-.3-.48-.59c-.32-.39-.64-.76-.95-1.12-.65-.71-1.27-1.38-1.91-1.99.07.12.14.29.19.41-1-1.2-1.91-3.35-2.55-5.21-.68-1.9-1.18-3.47-1.99-4.56-.28.61-.55.22-.84.28.29-.79-.3-1.7-1.44-3.06-.15-.17-.3-.36-.46-.54l-.26-.29-.13-.15c-.05-.06-.2-.3-.29-.44-.87-1.32-1.79-2.71-2.74-4.14-1.91-2.87-3.82-6-5.83-9.1-.99-1.56-2.02-3.1-2.96-4.67-.94-1.57-1.87-3.12-2.78-4.62-.9-1.51-1.78-2.98-2.62-4.38-.85-1.4-1.62-2.75-2.3-4.04-2.78-5.12-4.67-8.87-4.68-9.81-.54-.89-1.01-1.84-1.49-2.82-.85-2.47-1.65-4.98-2.41-7.49-.38-1.26-.76-2.52-1.11-3.79l-.96-3.84c-.61-2.56-1.21-5.11-1.81-7.65-.62-2.53-1.05-5.1-1.58-7.61-.52-2.51-1.04-4.99-1.55-7.44-.48-2.46-.94-4.88-1.46-7.24-.51-2.36-1.07-4.67-1.64-6.91-.53-2.26-1.11-4.45-1.76-6.57-1.09-1.69-2.18-3.52-3.27-5.27-1.07-1.76-2.08-3.46-3.14-4.88.3-3.32-1.89-3.4-2.53-7.17,1.38-5.28,1.36-9.15.8-11.07-.54-1.91-1.54-1.88-1.89.74-.47-1.52-.9-3.06-1.3-4.6-.35-1.54-.67-3.09-.97-4.62-.57-3.07-1.12-6.09-1.66-8.99l-17.11-92.68-10.39,93.22c-.18,1.57-.33,3.09-.46,4.57-.01,3.5,0,6.97.05,10.49.05,1.5-.16,2.64-.54,3.58-.35.94-.9,1.68-1.55,2.38.18,7.63-.91,5.29-1.99,13.21-1.01.91-.5,5.94.18,10.97.69,5.04,1.46,10.1,1.22,11.2l-.25-1.29c-.21,4.54-1.19,8.32-2.15,12.08-.48,1.88-.96,3.76-1.33,5.73-.35,1.96-.56,4-.58,6.23-1.18,24.76,1.28,51.38,1.32,73.74,1.87.17-.56-4.91,1.9-5.25.08,13.21-1.86,26.53-2.12,39.65-.49,2.37-1.42,5.26-2.01,6.34-.68,4.18.91,2.48.66,5.54l-1.69.4c1.29,4.46-1.99,6.46-1.38,10.64.67.24.73,1.76.65,3.24-.89.01-.88,1.15-.85,2.26.02,1.1.02,2.16-.78,2.03l.13.05c-.07.88.01,1.52-.35,2.58.27.85,1.44,5.26,2.63,9.73.3,1.12.6,2.24.88,3.3.25,1.06.49,2.06.7,2.95.43,1.78.77,3.12.92,3.56l-.36.77c-.14,2.36,1.09,3.49,1.53,2.13l-.34,2.91-.09-.35-.34,2.89c-.2.52-1.08,1.04-1.79.14.24.85.42,1.75.45,2.62.01.87-.09,1.74-.35,2.53.4-1.1.9-2.26,1.32-3.47.43-1.22.89-2.47,1.37-3.73.96-2.52,2.02-5.08,3.12-7.42.45,2.03-.8,5.53-.78,7.69-.71,1.22-1.36,3.13-2.11,5.21-.76,2.07-1.5,4.32-2.16,6.29,0,.9,1.89,1.76.77,3.66-1.49.8-.23,2.28-1.43,3.82-.49-2.02.07-3.85.38-5.79-1.65.13-1.68,4.58-2.32,6.05.47.81-.7,4.42-.66,6.81-1.36-1.26-1.31,1.71-2.37,2.94-.45,1.52,0,2.63.64,2.09,1.58.81,2.08-6.06,3.46-3.58-.91.44-1.16,3.57-1.38,5.24.91.19.89-1.01,1.57.23-.52,1.81.23,3.99-.89,4.87-.19-.4.1-1.13.22-1.67-.25,1.2-1.17-2.36-2.04-5.76-.87-3.4-1.67-6.64-1.67-5.07.47-.33,1.24,3.26,1.93,6.8.69,3.54,1.29,7.01,1.45,6.21.7-1.39,1.45,1.39,2.04-.08l-.81-1.91c.7-2.02,2.44-2.58,2.94-1.73-.38,1.75-1.5-1.05-2.48-3.84-.98-2.79-1.83-5.58-1.62-4.02l.64-1.13c.38,1.35.31,4.81-.87,5.94.9.17.92,1.93,1,3.4l-.24.47c.2,1.54-.36,3.55.99,2.83.67-4.3,2.71-2.47,4.82-.55,2.11,1.92,4.29,3.95,5.29-.29-2.6,3.2-1.83-1.59-1.41-5.37.74-.24,2.02-1.74,3.01-4.36.25-2.37-.49-1.5-.92-2.02.69-1.22,1.46-3.65,2.44-3.18-1.02-2.02,1.17-2.83,1.01-5.11-.34-2.03-.56.06-.99-1.4.5-2.9,1.19-6.98,1.72-9.28,1.14-.79,3.09-3.39,4.47-1.21-.73,4.46-2.28-1.96-2.52,2.72,2.52-1.75.11,4.18,1.72,5.23,1.21-1.36,1.59-4.39,1.62-6.94l-.36.47c-.04-2.26-.2-6.76,1.24-9.06.75.64,1.44-.37,1.49,1.29l.41-3.07c-.22-.41-.45-.83-.7.04-.5-1.5-.03-2.93.53-4.01,1.04-.3-2.64-16.59-2.13-16.04.08-2.21,1.38-2.7.62-4.89-.34-.13.13,5.18.67,10.18.27,2.5.55,4.92.76,6.54.18,1.61.27,2.42.27,1.68.6-.92-.22-7.29-.87-13.54-.6-6.26-1.49-12.41-.64-13.08-.03-1.64-.17-3.62-1.04-3.25.47-2.76,1.62.86,2.46-1.1-.13-.05-.43.15-.39-.48l1.12-1.89c-1.19-4.33.42-10.64-1.32-15.14.93,1.3,2.57,2.79,3.42,5.7l-.45.51c.27.41.57,2.81,1.43,2.75.56-2.77.4-5.14-.46-8.05.23-.54.46-1.17.7-1.59-.11.01-.21.06-.34.05.53-.96.62-.86.95-.51.06.04.13.1.2.2,1.25-.88.86-3.6.27-6.73-.61-3.12-1.38-6.65-.78-9.18-.38-1.48-.43-.13-.95-1.97.91-5.18,1.57-8.75,1.99-14.14-1.13-1.69-1.57-1.81-2.64.3l.23-4.07c2.99,3.61,2.52-7.67,5.52-3.69.63-1.21.69-3.65.14-5.9-.73-.2-1.91-.52-2-3.38.83-4.01.51-3.05,1.33-6.37.92-.81,1.33.38,2.08.22-1.38-5.04,1.9-4.51,1.57-9.26-.37-2.97-.67-8.86-2.33-8.96-.05-4.03,1.16-4.06,2.52-3.7Z"/>
          <path class="cls-5" d="M135.81,469.12l1.4,2.21c-5.15-6.69-9.87-14.21-14.42-21.68,3.24,9.35,7.23,19.3,12.77,27.48,5.54,8.18,12.66,14.56,21.9,16.68-2.01,2.58-.74,7.99,1.29,12.67,2.03,4.68,4.79,8.61,5.52,8.25,1.69,1.14,3.34,2.31,4.97,3.52,1.64,1.2,3.26,2.44,4.84,3.72-2.11-1.81-4.3-3.56-6.47-5.27,2.17,1.71,4.36,3.46,6.47,5.27,1.24,1.02,2.49,2.04,3.74,3.07l1.85,1.58.92.8c.31.27.57.49,1.04.96,1.92,1.86,3.86,3.72,5.8,5.6,1.91,1.87,3.78,3.77,5.7,5.51,1.91,1.79,3.8,3.59,5.68,5.41,1.89,1.68,3.79,3.36,5.69,5.05l1.42,1.28c.47.43.95.87,1.42,1.18.94.69,1.88,1.39,2.83,2.08.94.7,1.89,1.41,2.84,2.12l.71.54c.23.16.45.24.68.37l1.35.7,2.72,1.43,1.37.73c.44.19.85.32,1.27.48l2.54.93,1.28.47c.43.15.83.25,1.24.37,1.65.43,3.34.76,5.26.77,1.92.1,4.16-.28,6.31-1.07,2.15-.78,4-1.95,5.52-3.15,1.52-1.22,2.8-2.51,3.94-3.87.57-.7,1.12-1.34,1.61-2.14l1.5-2.38c1.09-1.42,1.86-3.59,2.77-5.5.12-.27.25-.56.37-.85.13-.29.27-.57.35-.95.19-.73.39-1.49.59-2.28.21-.8.42-1.63.64-2.48.11-.43.22-.87.34-1.31.08-.48.13-1,.2-1.52.25-2.08.57-4.25.79-6.62.15-2.43.34-4.97.49-7.65.03-2.74.12-5.57.11-8.52-.11-2.99-.12-6.05-.32-9.21-.11-1.59-.22-3.18-.33-4.79-.06-.81-.11-1.62-.17-2.43l-.14-1.8c-.15-1.89-.28-3.81-.46-5.68-.67-7.56-1.56-14.94-2.3-21.38-.75-6.44-1.34-11.91-1.59-15.83-.18-2.26-.37-4.51-.61-6.79q.12,3.82.24,7.64c-3.4-9.04-6.56-17.22-9.1-25.24-.64,1.61-1.47,2.01-2.09,5.67l-.16-4.3c-3.3-3.35-4.72-12.2-6.55-16.15,1.53.65,1.21-2.66.92-5.58l-.71,1.3c-1.33-11.04-4.6-23.56-6.06-33.38-.23-1.37.12-2.47.49-3.17l-2.6-9.22c1.95.42.34-8.05,2.21-3.76-3.29-6.68-3.13-14.03-6.42-20.38-4.06-23.94-9.27-49.26-15.84-73.71l-.6.71c-2.46-8.54-7.12-15.73-7.36-26.5-3.48-7.24-6.19-17.85-10.4-20.38-1.67-8.69-4.03-11.94-6.11-20.42-1.62,2.45-3.35-8.07-4.29-3.65-1.93,6.04.37,6.07-1.17,11.19l.62-.23c.01,22.99,1.43,45.87,3.8,68.9,3.78,15.06,4.89,31.82,7.82,47.61,3.29,16.98,7.46,35.25,11.44,49.61,1.11,3.4-.06,6.18-.44,9.3,3.1,13.3,5.36,30.51,9.08,45.46-.04-.29-.06-.57-.07-.75,1.72,7.99.89,14.35,2.62,22.14.53-.14.79,1.07,1.17,1.61-1.13.88,2.3,12.29,5.87,23.59,1.77,5.64,3.5,11.26,4.66,15.65,1.17,4.4,1.79,7.57,1.5,8.28.21.75.43,1.6.59,2.36-.04,2.23-.37,4.17-.91,5.79-.52,1.61-1.24,2.82-1.96,3.67-.71.86-1.44,1.37-1.98,1.88-.53.5-.96,1.09-1.55,1.98.21,1.41.16,2.72,0,3.81-.15,1.1-.35,2.02-.48,3.01-.72-1.3-.81-1-.95-.56-.13.44-.27.98-.84.27-.79-2.15-1.5-4.05-2.08-5.64-.43-1.11-.69-1.57-.87-1.66-.34-.15-.46,1.16.14,3.06-.9-.39-1.9-1.27-2.78-2.21-.91-.93-1.72-1.93-2.57-2.71-.93-.46-1.93-1.01-3.08-1.63-.24-.11-.44-.29-.75-.7-.27-.35-.46-.71-.59-1.08-.26-.73-.27-1.5-.18-2.31-4.24-3.78-2.18-3.38-5.61-8.22.21-1.1-2.68-3.54-5.75-5.89-3.05-2.37-6.22-4.72-6.54-5.54l.82.6c-4.08-5.6-4.2-11.34-8.2-16.77-10.42-15.65-23.63-31.47-33.21-46.1-1.63.94,2.57,2.9.67,4.5-5.71-8.6-9.75-18.45-15.35-27.2-.64-1.83-1.15-4.25-1.13-5.29-1.28-3.13-1.84-1.12-2.99-3.27l1.22-1.21c-3.11-2.18-1.34-5.33-3.75-7.72-.66.23-1.41-.74-2.02-1.75,1.46-1.03-2.12-2.97-.66-3.72l-.13.05c-.37-.61-.74-.97-.96-1.87-1.27-.77-12.28-8.75-13.64-9.53l-.09-.7c-1.06-1.57-2.62-1.55-2.29-.44l-1.17-2.03.25.16-1.15-2.02c-.09-.45.36-1.3,1.37-1.16-1.22-.78-2.29-1.86-2.72-3.14.98,3.69,2.1,8.37,2.65,12.59-1.37-1.01-2.09-3.93-3.18-5.27-.08-2.36-1.47-6.45-2.47-9.64-.46-.55-2.42.07-2.51-1.77.76-1.39-1-1.54-.83-3.2,1.41.94,1.93,2.4,2.68,3.77,1.25-1.08-1.05-3.82-1.28-5.11-.73-.23-1.84-3.08-3.16-4.46,1.75-.09.1-1.81.27-3.18-.47-1.18-1.42-1.56-1.64-.84-1.68.49,1.65,4.84-.77,4.22.48-.81-1.03-2.81-1.74-3.92-.81.44-.17,1.13-1.36.83-.55-1.38-2.29-2.2-1.86-3.4.36.12.52.72.71,1.11-.42-.86,2.15.66,4.65,2.13,2.52,1.48,4.92,2.9,4.06,1.97-.19.49-2.76-1.17-5.19-2.84-2.4-1.65-4.7-3.32-4.41-2.75.18,1.24-1.88.08-1.56,1.29l1.64.63c.51,1.61-.56,3.01-1.4,2.81-.62-1.25,1.71-.3,3.99.74,2.28,1.04,4.45,2.17,3.45,1.38l.11,1.06c-1.03-.57-2.85-2.65-2.53-4.03-.8.45-1.74-.57-2.58-1.38l-.06-.42c-.97-.78-1.58-2.3-2.27-1.06,1.74,2.93-.83,3.11-3.51,3.27-2.67.17-5.46.31-4.01,3.4.37-3.47,2.26-.18,3.96,2.28-.45.59-.65,2.25-.02,4.38,1.08,1.53,1.2.57,1.82.62.14,1.12.83,3.02-.21,3.34,1.84.6.5,2.42,1.79,3.69,1.31,1.01.42-.37,1.51.24,1.09,2.05,2.64,4.91,3.42,6.6-.47,1.13-.81,3.92-2.96,3.39-1.69-3.11,2.85-.19.62-3.13-1.1,2.54-2.25-2.43-4.06-2.1-.27,1.54.98,3.57,2.28,5.1l.05-.5c1.18,1.33,3.44,4.04,3.43,6.29-.91.05-.98,1.07-1.83.09l1.17,2.12c.38.12.77.25.55-.44,1.13.63,1.45,1.78,1.52,2.77-.57.69,9.95,8.85,9.3,8.79.97,1.44.13,2.49,1.79,3.43.33-.11-2.54-3.18-5.32-6.01-2.77-2.84-5.42-5.45-4.68-4.55.01.87,3.56,4.45,7.05,7.99,3.47,3.55,6.89,7.05,6.51,7.95.76,1.04,1.78,2.22,2.32,1.5.86,2.03-1.72.37-1.53,2.1.13-.05.29-.34.54.08l-.07,1.84c2.98,2.07,4.33,7.13,7.77,9.07-1.34-.32-3.35-.37-5.32-1.79l.15-.58c-.4-.12-1.7-1.51-2.38-.98.74,2.11,1.92,3.56,3.89,4.97.04.48.13,1.02.12,1.42.09-.07.15-.15.26-.22-.02.92-.14.9-.57.86-.07,0-.15,0-.25-.02-1.3,2.54,6.12,6.12,7.31,10.1.96.75.41-.15,1.64.76,1.48,3.89,2.46,6.61,4.42,10.41,1.66.48,2.08.32,2.06-1.67l1.55,2.81c-4.04-.7,1.22,6.46-2.99,5.51,0,1.15,1.01,2.79,2.43,3.98.7-.28,1.8-.72,3.12,1.11,1.05,3.11.9,2.3,1.67,4.95-.4,1.05-1.26.5-1.81,1.03,3.33,2.55.39,4.05,2.77,7.01,1.63,1.76,4.49,5.48,5.89,4.59,1.85,2.62.87,3.34-.4,3.88Z"/>
          <path class="cls-5" d="M267.86,244.78l.03,1.52c-.82-4.83-.98-10.01-1.04-15.13-1.99,5.89-3.76,12.2-3.4,17.89.35,5.7,2.75,10.8,9.26,14.27-3.1.87-5.03,4.06-5.99,7.02-.98,2.97-1,5.73-.21,5.74,1.43,2.07,2.65,4.19,3.7,6.36-.64-1.5-1.34-2.99-2.13-4.46.78,1.46,1.48,2.95,2.13,4.46,6.66,13.74,6.23,29.66,5.51,46.09-.14,4.56.07,12.99.21,21.44.12,8.48.17,16.98-.28,21.7-.1,1.37-.18,2.72-.22,4.09q.34-2.3.69-4.61c2.26,5.48,4.42,10.42,6,15.27.82-.96,1.69-1.21,2.73-3.4l-.35,2.59c2.86,2.03,3.29,7.36,4.65,9.75-1.43-.4-1.51,1.6-1.54,3.36l.84-.78c.09,6.65,2,14.18,2.47,20.1.09.82-.36,1.49-.8,1.91l1.66,5.54c-1.89-.24-1.13,4.86-2.57,2.29,2.64,4,1.79,8.44,4.49,12.23,1.86,14.39,5.12,29.59,10.12,44.06l.64-.45c1.86,5.06,6.17,9.13,5.83,15.61,1.54,2.08,2.85,4.67,4.29,6.9,1.46,2.22,3.06,4.07,5.1,4.68,1.31,5.09,3.54,6.85,5.3,11.75,1.69-1.6,3.04,4.55,4.12,1.82,2.14-3.76-.14-3.59,1.56-6.75l-.62.18c.43-6.83.49-13.58.48-20.36-.04-6.77-.37-13.5-.76-20.29-1.37-4.38-2.06-9.05-2.57-13.78-.49-4.74-.85-9.55-1.65-14.2-.96-4.99-1.99-10.2-3.15-15.21-1.16-5.01-2.41-9.84-3.65-14.1-.76-2.02.67-3.68,1.37-5.54-1.71-7.89-2.09-18.15-4.06-27.08.01.17,0,.34-.02.45-.8-4.77.79-8.57,0-13.23-.54.08-.65-.65-.96-.97,2.44-1.06-8.05-27.12-6.77-28.93-.17-.48-.33-.97-.45-1.48.11-10.04,3.97-20.83,2.59-29.33-1.39-1.73-2.65-3.7-4.17-5.11.92-1.63-1.2-1.69-1.12-3.54,4.54-5.18,2.11-7.66.59-5.07-1.12-3.72-1.1-7.59-1.66-10.94-.55-1.52-1.11-3.03-1.74-4.56-.59-1.29.07-2.13,1.19-2.95-1.14-3.35.24-2.48.31-6.15,1.66-1.09-3.9-8.68-3.51-9.76l.34.55c-.24-4.2,2.81-7.41,2.43-11.51-.05-2.87-.27-5.79-.59-8.72-.35-2.93-.8-5.86-1.26-8.76-.94-5.81-1.89-11.5-2.46-16.79-1.86.18.77,2.25-1.65,2.75-.66-6.21.65-12.84-.05-19.11.31-1.2,1.01-2.7,1.52-3.29.37-2.05-1.07-1-1.06-2.44l1.63-.46c-1.7-1.82,1.38-3.23.4-4.98-.68,0-.87-.65-.91-1.31,1.76-.29-.41-1.98,1.23-2.09h-.14c-.02-.39-.17-.64.07-1.15-.37-.33-1.96-2-3.55-3.7-1.59-1.7-3.13-3.41-3.53-3.75l.27-.36c-.12-.98-1.45-1.32-1.75-.72l.03-1.22.13.13c.02-.4.02-.81.04-1.21.15-.23.98-.5,1.77-.19-.64-.64-1-1.38-.7-2.05-1.06,1.85-2.54,4.27-4.16,6.5-.69-.82.18-2.41-.06-3.31,1.13-1.15,2.06-3.36,2.9-4.97-.1-.35-2.11-.65-1.19-1.45,1.39-.35-.01-.92,1-1.55.71.8.34,1.52.25,2.3,1.62-.11,1.17-1.83,1.65-2.41-.49-.31.14-1.7-.23-2.63,1.51.53,1.08-.61,1.96-1.02.25-.55-.33-1-.9-.84-1.66-.42-1.27,2.24-2.95,1.22.85-.14.68-1.36.7-2-.92-.14-.77.34-1.58-.2.32-.68-.66-1.63.34-1.88.23.18.03.44-.03.65.13-.45,1.39,1.05,2.67,2.41,1.29,1.37,2.51,2.59,2.3,2-.42.11-1.65-1.25-2.77-2.69-1.07-1.4-2.04-2.87-2.12-2.57-.54.5-1.58-.72-1.99-.16l1,.86c-.47.76-2.13.88-2.71.49.2-.7,1.56.55,2.89,1.74,1.32,1.19,2.51,2.29,2.11,1.68l-.49.42c-.55-.54-.91-1.93.11-2.31-.92-.13-1.13-.82-1.37-1.42l.18-.17c-.37-.64-.03-1.4-1.28-1.24-.19,1.7-2.41.82-4.69-.19-2.28-1-4.63-2.17-5.19-.27,2.26-1.27,1.93.86,1.97,2.53-.7.07-1.79.7-2.45,1.89.08,1.09.69.69,1.19.94-.5.55-.96,1.65-2.01,1.44,1.2.91-.87,1.31-.48,2.35.55.91.55-.04,1.14.61-.15,1.33-.36,3.2-.56,4.28-.99.42-2.72,1.78-4.29.88.16-2.12,2.54.73,2.15-1.44-2.27.97-.64-1.92-2.35-2.33-1.03.7-1.06,2.16-.73,3.36l.3-.25c.31,1.06.88,3.13-.27,4.34-.81-.22-1.39.32-1.62-.46l-.07,1.49c.27.17.54.34.69-.09.67.65.38,1.36-.05,1.93-.43.12.63,2,1.75,3.77,1.13,1.77,2.31,3.44,2.04,3.36.16,1.02-1.07,1.44-.08,2.32.35,0-.71-2.34-1.74-4.57-1.03-2.23-2.05-4.36-1.85-3.68-.42.49.91,3.38,2.25,6.15,1.34,2.77,2.64,5.46,1.9,5.9.18.75.5,1.63,1.32,1.32-.21,1.34-1.68-.13-2.33.9.14,0,.41-.14.43.15l-.93,1.05c1.63,1.78.4,4.96,2.49,6.74-1.02-.45-2.74-.86-3.79-2.06l.41-.31c-.29-.15-.77-1.2-1.61-1.03-.35,1.36-.02,2.43,1.03,3.62-.19.28-.37.61-.57.84.11-.02.2-.06.33-.08-.45.52-.55.49-.9.39-.06-.01-.14-.02-.21-.06-2.33,1.21,2.36,4.68,1.44,7.2.46.62.43,0,1.04.76-.61,2.51-1.11,4.25-1.3,6.79,1.19.62,1.63.61,2.6-.51l-.06,1.91c-3.12-1.24-2.17,3.88-5.31,2.46-.57.64-.53,1.77.1,2.73.74,0,1.92-.02,2.1,1.29-.69,1.96-.41,1.48-1.11,3.12-.88.49-1.33,0-2.07.17,1.53,2.14-1.74,2.32-1.25,4.48.47,1.33.97,4.02,2.62,3.85.19,1.86-1.01,2.03-2.37,2.03Z"/>
          <path class="cls-5" d="M328.61,184.96l.82.47c-2.87-.84-5.7-2.15-8.61-3.2,1.44,1.6,2.8,3.27,4.13,4.71,1.33,1.43,2.64,2.65,4.05,3.42,2.84,1.49,6.1,1.25,11.54-2.58-.67,1.46-.9,2.93-.91,4.27,0,1.34.24,2.53.53,3.59.3,1.03.72,1.81,1.12,2.29.38.5.77.66,1.03.37.86-.07,1.72-.08,2.56-.04.81.07,1.62.19,2.41.36-1.04-.27-2.05-.55-3.17-.62,1.12.06,2.13.35,3.17.62,4.97,1.07,8.95,4.34,11.7,8.54,2.79,4.21,4.29,9.37,5.04,14.46.27,1.4.63,3.35.99,5.59.31,2.26.62,4.81.67,7.38.19,5.14-.49,10.29-1.51,13-.27.79-.46,1.57-.73,2.36.69-1.29.62-1.29,1.25-2.62,1.66,3.41,2.94,6.8,3.51,10.12.98-.41,1.93-.35,3.33-1.55-.26.53-.54,1.06-.85,1.58,1.16.96,1.61,2.36,1.75,3.74.13,1.38.12,2.76.43,3.74-1.25-.69-1.87.54-2.38,1.62l1-.21c-.41,1.06-.81,2.17-1.16,3.31-.16.57-.33,1.15-.49,1.73-.17.58-.35,1.15-.52,1.72-.16.58-.33,1.15-.49,1.72-.19.55-.38,1.1-.57,1.64-.37,1.08-.78,2.1-1.28,2.98-.25.51-.9.66-1.43.67-.2,1.32-.6,2.61-.91,3.94-1.47-1.16-2.99,1.99-3.08-.2.21,1.79-.43,3.15-1.01,4.51-.61,1.35-1.3,2.65-1.18,4.5-2.93,4.24-6.09,8.62-9.4,13.18-3.29,4.57-6.8,9.26-10.2,14.19l.66.34c-1.14,1.79-1.85,3.95-2.87,5.95-1,2.02-2.37,3.83-4.72,4.9-.67,2.08-1.86,4.15-2.72,6.21-.88,2.04-1.45,4.07-.9,6.06-3.1,2.92-3.33,5.48-6.12,8.7,1.98.94-1.93,4.22.59,4.25,3.8.58,2.6-1.36,5.76-.97l-.43-.48c5.29-2.04,10.45-4.41,15.51-7.16,5.05-2.78,9.98-5.93,14.79-9.5,1.23-1.64,2.61-3.16,4.07-4.63,1.44-1.52,2.99-2.96,4.54-4.43,3.09-2.97,6.27-6,8.92-9.46,1.39-1.9,2.78-3.83,4.05-5.91.64-1.03,1.28-2.05,1.9-3.09.58-1.07,1.16-2.14,1.73-3.19,2.25-4.23,4-8.59,5.23-12.53.47-1.92,2.45-2.51,4.03-3.64.67-1.81,1.3-3.76,2.09-5.73.68-2.01,1.48-4.06,2.12-6.18.32-1.06.64-2.14.96-3.21.31-1.08.54-2.17.79-3.26.53-2.17.8-4.37,1.01-6.5-.04.16-.11.3-.15.39.32-2.24,1.01-4.12,1.75-6.02.63-1.91,1.36-3.82,1.36-6.08-.54-.03-.52-.72-.78-1.08,1.31-.27.52-7.03-1.32-13.52-.49-1.62-.93-3.24-1.45-4.74-.51-1.49-.99-2.91-1.41-4.14-.91-2.45-1.43-4.19-1.14-4.64-.21-.42-.42-.85-.59-1.3-.34-4.58-.28-9.49-.63-14.36-.26-2.39-.5-4.81-1.11-7-.29-1.11-.6-2.19-1-3.21-.42-1-.9-1.96-1.44-2.85-1.87-1.04-3.84-2.2-5.74-2.75.2-1.8-1.73-.9-2.44-2.45.46-1.6.58-2.88.51-3.85-.08-.96-.37-1.58-.69-1.91-.65-.66-1.48-.12-1.52,1.31-1.36-1.22-2.45-2.63-3.59-3.94-1.11-1.33-2.13-2.68-3.3-3.76-1.29-.81-2.52-1.64-3.91-2.33-1.19-.56-1.16-1.58-.8-2.9-1.4-.87-1.77-1.3-2.02-1.92-.26-.6-.43-1.34-1.57-2.66.28-.98-1.93-1.76-4.15-2.39-2.25-.62-4.62-.94-4.85-1.45l.6.09c-1.5-1.27-2.43-2.85-3.38-4.52-.93-1.68-2.02-3.22-3.75-4.24-1.15-.82-2.4-1.5-3.66-2.19-1.26-.69-2.56-1.33-3.91-1.9-2.7-1.14-5.5-2.1-8.36-2.84-5.72-1.53-11.57-2.33-17.11-2.91-.22,1.85,2.48-.27,2.39,2.22-3.14-.43-6.35-1.16-9.72-1.65-3.37-.48-6.91-.68-10.39-.1-.67-.11-1.45-.31-2.15-.53-.71-.2-1.36-.42-1.73-.62-2.5-.02-1.11,1.22-2.82,1.52l-.75-1.53c-1.01,1.06-2.04.92-3.1.76-1.06-.16-2.19-.44-3.17.41.15.67-.62,1.13-1.43,1.45-.84-1.62-2.35,1.33-2.99-.17l.04.13c-.49.23-.77.51-1.5.55-.29.55-1.92,3.03-3.22,5.66-.67,1.28-1.25,2.62-1.69,3.68-.44,1.05-.71,1.87-.77,2.18l-.53.07c-.99.92-.51,2.27.27,2.01-.43.32-.85.65-1.26,1l.05-.22-1.23,1.04c-.32.09-1.16-.25-1.38-1.14-.25,1.08-.7,2.1-1.57,2.57,2.55-1.25,5.95-2.21,8.98-2.39-.37,1.14-2.41,1.56-3.07,2.52-1.78.04-4.49,1.36-6.56,2.65-.24.47,1.1,1.96-.28,2.29-1.43-.38-.71,1.06-2.06,1.26.03-1.32.93-2.04,1.69-2.84-.69-.42-1.35-.08-1.92.49-.56.56-1.06,1.29-1.51,1.53.16.61-1.47,2.24-1.8,3.67-1.05-1.32-1.43.51-2.56.9-.63.8-.35,1.64.33,1.52,1.38,1,2.66-2.9,3.61-.87-.88-.1-1.49,1.65-1.84,2.56.83.4.91-.3,1.45.65-.62.89-.04,2.35-1.16,2.54-.16-.28.16-.62.31-.9-.3.63-1.03-1.7-1.41-4.06-.19-1.21-.37-2.4-.48-3.15-.11-.76-.22-1.11-.35-.62.46-.03.61,2.57.87,4.89.32,2.39.72,4.51.93,4.1.74-.59,1.33,1.14,1.96.49l-.67-1.29c.79-.95,2.44-.67,2.86-.05-.42.82-1.41-1.03-2.01-2.95-.64-1.92-1.01-3.95-1.04-2.94.24-.14.49-.26.74-.39.12.93-.28,2.89-1.51,3.13.8.4.68,1.43.67,2.3l-.26.2c.09.95-.55,1.92.78,1.88.87-2.22,2.67-.5,4.61,1.07,1.94,1.6,4.03,3.03,4.98,1.51-1.23.29-1.66,0-1.72-.62-.06-.61.25-1.52.55-2.3.7.17,1.9-.03,2.92-.73.37-.91-.33-.87-.67-1.3.68-.25,1.55-.93,2.37-.21-.61-1.33,1.35-.52,1.5-1.48.01-.98-.48-.29-.61-1.1.43-.42.95-.93,1.45-1.42.53-.45,1.05-.86,1.46-1.13.98.38,2.96.91,3.54,2.51-1.25,1.05-1.39-2.22-2.33-.7,2.19.99-.6,1.55.57,2.92,1.11.23,1.81-.5,2.2-1.35l-.34-.08c.14-.4.43-.94.86-1.36.43-.42.99-.71,1.72-.52.38.72,1.05.94.77,1.44l.87-.55c-.07-.28-.13-.56-.48-.51-.03-.79.57-.86,1.16-.71.32.31.8-1.26,1.45-2.78.61-1.57,1.39-3.08,1.43-2.82.68-.45,1.47.62,1.75-.51-.06-.16-.43.14-.93.67-.49.55-1.08,1.35-1.61,2.12-.5.82-.97,1.59-1.23,2.15-.26.56-.36.86-.21.65.27.09.64-.41,1.15-1.13.25-.38.53-.82.83-1.28.32-.46.66-.95.99-1.44,1.39-1.94,3.13-3.67,3.67-3.03.52-.29,1.12-.71.67-1.46,1.09.01.33,1.63,1.27,2.12-.03-.13-.21-.38,0-.43.34.26.66.51.99.78.48-.85,1.39-1.1,2.29-1.28.91-.21,1.8-.46,2.39-1.47-.25,1.01-.4,2.69-1.08,3.77l-.28-.39c-.06.29-.73.78-.45,1.59,1.01.33,1.62-.05,2.36-1.05.22.19.47.37.64.58-.03-.11-.06-.2-.08-.32.41.46.39.55.35.9,0,.06,0,.14-.02.2.52,1.16,1.23.63,2.1-.07.86-.69,1.93-1.53,2.79-.93.44-.39,0-.43.57-.95,1.73.88,2.86,1.65,4.52,2.26.57-1.06.66-1.49.01-2.64.44.12.89.28,1.32.42-.68,1.4-.1,2.13.42,2.84.53.72.99,1.47.27,2.84.29.7.97.89,1.68.5.15-.71.4-1.85,1.28-1.73,1.06,1.11.83.76,1.64,1.83.05.97-.36,1.27-.46,2.02,1.68-.92.84,2.26,2.17,2.37.44-.03,1.07.02,1.66-.1.58-.11,1.13-.41,1.39-1.2,1.13.4.74,1.59.23,2.82Z"/>
        </g>
      </g>
      <g>
        <path d="M448.38,65.89l17.11,92.68c.27,1.48.55,3,.84,4.53,0,0,1.38,4.54,1.3,6.8.16.76.32,1.52.5,2.27.4,1.54.82,3.07,1.3,4.6.19-1.42.57-2.08.97-2.08.33,0,.68.47.92,1.34.56,1.92.58,5.78-.8,11.07.63,3.77,2.83,3.85,2.53,7.17,1.05,1.42,2.07,3.12,3.14,4.88,1.09,1.75,2.18,3.58,3.27,5.27.65,2.12,1.23,4.31,1.76,6.57.58,2.25,1.14,4.55,1.64,6.91.52,2.36.98,4.79,1.46,7.24.51,2.45,1.03,4.93,1.55,7.44.53,2.51.96,5.08,1.58,7.61.6,2.54,1.2,5.09,1.81,7.65l.96,3.84c.35,1.27.73,2.53,1.11,3.79.76,2.52,1.56,5.02,2.41,7.49.48.98.95,1.93,1.49,2.82.01.94,1.9,4.69,4.68,9.81.68,1.29,1.46,2.64,2.3,4.04.84,1.4,1.71,2.87,2.62,4.38.9,1.51,1.83,3.05,2.78,4.62.94,1.56,1.98,3.11,2.96,4.67,2.01,3.1,3.92,6.23,5.83,9.1.95,1.44,1.87,2.82,2.74,4.14.1.14.24.38.29.44l.13.15.26.29c.16.19.32.37.46.54,1.14,1.36,1.73,2.26,1.44,3.06.02,0,.05,0,.07,0,.13,0,.26.07.39.07s.25-.07.38-.35c.81,1.09,1.31,2.65,1.99,4.56.64,1.87,1.55,4.01,2.55,5.21-.05-.12-.12-.29-.19-.41.63.61,1.26,1.28,1.91,1.99.32.36.64.73.95,1.12l.48.59.24.3s.05-.28.08-.41c.34-2.3.74-4.39,1.02-6.49.28-2.09.54-4.16.54-6.11.46-.04,1.09.02,1.58-.24.49-.24.85-.82.73-1.84-.05-.94-.11-1.9-.16-2.9-.03-.44-.06-.89-.09-1.35l-.02-.33s0-.2.02-.36l.03-.48c.05-.64.09-1.28.14-1.92.37-5.15.75-10.5,1.13-15.95.79-10.89,1.61-22.16,2.4-32.99,1.64-20.1,4.82-40.99,4.7-60.53,3.13-29.02,6.57-57.78,11.16-86.52l-.65.15c2.53-6.07.28-6.6,3.38-13.75.3-.89.54-1.25.74-1.25.88,0,.99,7.12,2.22,7.12.15,0,.33-.11.52-.37.35,11.07,2.02,15.66,1.86,26.91,3.62,4.11,4.08,18.02,5.89,27.91-1.05,6.78-.83,12.69-.32,18.33.53,5.64,1.37,11.01,1.55,16.66l.75-.73c.73,32.29-.95,65.51-4.47,96.6.59,4.48.22,9-.15,13.57-.19,2.28-.35,4.58-.48,6.9-.06,1.16-.08,2.32-.07,3.49l.02.88c0,.3.03.52,0,1.07-.01.6-.02,1.2-.02,1.81,0-1.29-.07-1.81-.2-1.81-.21,0-.57,1.42-1,3.1-.65,2.62-1.47,5.82-2.19,5.82-.1,0-.2-.06-.3-.2-.56,6.28-1.29,12.6-2.03,19.12-.62.81-1.39,2.29-1.83,4.91-1.45,8.58-3.09,18.31-4.78,28.36-.83,5.07-1.74,10.34-2.67,15.52-.93,5.18-1.88,10.27-2.83,15.02-.25-.16-.5-.32-.74-.48l-.09-.06s-.08-.11-.12-.16l-.23-.34-.46-.68c-.62-.92-1.22-1.82-1.82-2.71l1.69,3.98c-3.39-5.16-7.13-10.94-6.56-12.54-1.04-.99-2.44-2.62-4.02-4.54-1.55-1.92-3.26-4.03-4.95-6.13-3.41-4.19-6.9-8-9.25-9.19l-4.59-7.9c1.75,3.74,2.71,6.12,3.41,8.02.7,1.91,1.13,3.35,1.95,5.36-2.5-3.2-5.08-6.45-7.76-9.77-2.67-3.38-5.49-6.58-8.3-10.63-2.92-4-5.88-8.07-8.9-12.22-3.11-4.22-6.34-8.83-9.5-13.86,1.02,2.16,1.78,3.77,2.42,5.12.67,1.34,1.21,2.41,1.75,3.48,1.07,2.18,2.21,4.23,4.49,8.5-2.87-4.98-5.67-9.95-8.18-15.12-.53-1.09-1.09-2.23-1.67-3.42-.3-.66-.61-1.34-.93-2.05-.65-1.41-1.36-2.94-2.1-4.55-1.44-3.25-3.04-6.86-4.76-10.72-.43-.96-.87-1.94-1.32-2.93-.42-1-.85-2.01-1.28-3.04-.86-2.05-1.75-4.14-2.64-6.26-1.71-3.91-3.28-7.99-4.88-12.06-.77,4.96-1.68,9.89-2.64,14.65.19-6.9.34-13.83.33-20.62-.93-2.45-1.83-4.89-2.7-7.3-.11.54-.16,1.24-.15,2.16,1.66.1,1.96,5.98,2.33,8.96.33,4.75-2.95,4.22-1.57,9.26-.05.01-.1.02-.14.02-.48,0-.83-.52-1.31-.52-.18,0-.39.08-.62.28-.82,3.32-.5,2.36-1.33,6.37.09,2.86,1.27,3.17,2,3.38.55,2.25.49,4.69-.14,5.9-.46-.61-.84-.86-1.16-.86-1.48,0-1.76,5.28-3.28,5.28-.3,0-.66-.21-1.08-.72l-.23,4.07c.55-1.08.93-1.57,1.32-1.57.38,0,.76.45,1.32,1.27-.42,5.4-1.08,8.97-1.99,14.14.52,1.84.56.49.95,1.97-.6,2.54.17,6.06.78,9.18.59,3.12.97,5.85-.27,6.73-.06-.1-.13-.16-.2-.2-.14-.14-.24-.25-.34-.25-.15,0-.3.2-.61.76.01,0,.03,0,.04,0,.11,0,.2-.04.3-.05-.24.42-.47,1.05-.7,1.59.85,2.91,1.02,5.28.46,8.05-.01,0-.02,0-.03,0-.83,0-1.13-2.34-1.39-2.75l.45-.51c-.85-2.91-2.49-4.4-3.42-5.7,1.75,4.51.13,10.82,1.32,15.14l-1.12,1.89c-.03.42.1.47.22.47.04,0,.07,0,.11,0,.02,0,.04,0,.06,0-.2.46-.41.61-.63.61-.43,0-.88-.6-1.25-.6-.24,0-.44.25-.58,1.09.07-.03.14-.05.2-.05.69,0,.81,1.79.84,3.3-.84.67.05,6.82.64,13.08.65,6.25,1.47,12.63.87,13.54,0,.19,0,.28-.02.28-.03,0-.12-.75-.25-1.95-.21-1.61-.49-4.04-.76-6.54-.3-2.78-.58-5.66-.71-7.64-.24.64-.55,1.3-.58,2.35,0,0-.02-.01-.02-.01-.37,0,3.17,15.75,2.15,16.05-.56,1.08-1.03,2.51-.53,4.01.11-.38.21-.51.32-.51.13,0,.26.24.39.47l-.41,3.07c-.06-1.66-.75-.66-1.49-1.29-1.43,2.31-1.27,6.81-1.24,9.06l.36-.47c-.03,2.55-.42,5.58-1.62,6.94-1.4-.92.25-5.55-.98-5.55-.18,0-.42.1-.74.32.07-1.4.26-1.81.51-1.81.34,0,.8.76,1.22.76.3,0,.58-.38.79-1.67-.39-.62-.83-.85-1.28-.85-1.14,0-2.38,1.5-3.2,2.06-.53,2.3-1.22,6.37-1.72,9.28.13.45.25.56.35.56s.2-.11.29-.11c.11,0,.23.17.36.95.16,2.28-2.04,3.09-1.01,5.11-.09-.04-.17-.06-.25-.06-.86,0-1.56,2.12-2.19,3.24.43.52,1.17-.35.92,2.02-.99,2.62-2.27,4.12-3.01,4.36-.32,2.91-.85,6.42.11,6.42.29,0,.71-.31,1.31-1.05-.43,1.84-1.09,2.49-1.87,2.49-1.01,0-2.23-1.12-3.43-2.21-1.16-1.06-2.3-2.08-3.2-2.08-.64,0-1.16.51-1.48,1.9l.31.73c-.13.33-.27.44-.41.44-.15,0-.32-.14-.48-.29,0,0-.02,0-.03,0-.21,0-.33-.14-.39-.37-.09-.06-.18-.1-.27-.1-.15,0-.3.11-.45.4-.02.08-.04.12-.06.12-.22,0-.77-3.14-1.39-6.33-.1-.49-.19-.99-.29-1.47-.2.29-.41.47-.65.47-.08,0-.16-.02-.25-.06-.11.09-.22.14-.32.14-.46,0-.7-.97-.32-2.23.36-.42.59-1.04.8-1.62.06.24.13.49.2.75-.06-.27-.13-.53-.19-.77.29-.83.52-1.6.98-1.6.16,0,.35.09.58.31-.04-2.39,1.13-6,.66-6.81.64-1.47.67-5.92,2.32-6.05-.31,1.94-.87,3.76-.38,5.79,1.19-1.54-.06-3.02,1.43-3.82,1.12-1.91-.78-2.77-.77-3.66.65-1.96,1.39-4.22,2.16-6.29.75-2.07,1.4-3.98,2.11-5.21-.02-2.16,1.23-5.66.78-7.69-1.1,2.34-2.16,4.89-3.12,7.42-.48,1.26-.94,2.52-1.37,3.73-.42,1.22-.92,2.37-1.32,3.47.26-.79.36-1.66.35-2.53-.02-.88-.21-1.78-.45-2.62.28.35.59.49.87.49.43,0,.8-.32.92-.63l.34-2.89.1.35.34-2.91c-.13.4-.33.58-.54.58-.51,0-1.09-1.05-.99-2.72l.36-.77c-.15-.44-.49-1.78-.92-3.56-.21-.89-.45-1.89-.7-2.95-.28-1.06-.58-2.18-.88-3.3-1.19-4.46-2.36-8.88-2.63-9.73.36-1.07.27-1.7.35-2.58l-.13-.05s.09.01.13.01c.67,0,.67-1,.65-2.04-.03-1.11-.04-2.25.85-2.26.08-1.48.02-3.01-.65-3.24-.62-4.18,2.67-6.18,1.38-10.64l1.69-.4c.24-3.06-1.35-1.36-.66-5.54.59-1.08,1.52-3.97,2.01-6.34.26-13.12,2.19-26.44,2.12-39.65-2.42.33-.11,5.26-1.82,5.26-.03,0-.06,0-.09,0-.04-22.36-2.5-48.98-1.32-73.74.02-2.22.24-4.26.58-6.23.37-1.97.85-3.85,1.33-5.73.96-3.76,1.95-7.54,2.15-12.08l.25,1.29c.24-1.1-.54-6.16-1.22-11.2-.68-5.04-1.19-10.06-.18-10.97,1.08-7.92,2.17-5.59,1.99-13.21.65-.69,1.2-1.44,1.55-2.38.38-.94.6-2.08.54-3.58,0-.63-.01-1.25-.02-1.88-.61-2.88-.03-8.62-.03-8.62.13-1.48.29-2.99.46-4.56l10.39-93.22M428.71,432.72c-.05-.03-.1-.04-.15-.04-.7,0-1.19,2.44-1.9,3.59.74,2.89,1.51,5.84,1.86,5.84.05,0,.1-.07.13-.21-.12.54-.4,1.25-.21,1.64.27-.21.43-.51.53-.85,0-.49.02-1.03-.05-1.53l.19-.38c0-.22,0-.45.01-.68-.04-.72-.1-1.44-.26-1.97-.02,0-.04-.01-.07-.01-.22,0-.41.36-.85.36-.06,0-.12,0-.19-.02.2-1.54.43-4.31,1.17-5.08.08.23.17.49.26.76.08-1.08,0-2.16-.16-2.78l-.51.91c.05.11.11.27.18.46M432.16,440.89c.14,0,.26-.16.34-.54-.15-.25-.4-.37-.71-.37-.11,0-.23.02-.36.05.28.53.53.86.73.86M428.66,441.88s0,.02,0,.03c0,0,0-.02,0-.03M448.38,50.89c-.18,0-.36,0-.54,0-7.43.27-13.55,5.94-14.37,13.33l-10.39,93.22c-.21,1.87-.36,3.4-.49,4.83-.2,2.01-.52,6.36-.12,10.38-1.35,2.36-2.05,5.06-1.99,7.82.03,1.29,0,1.94,0,2.21-.03.09-.05.17-.08.27-.46,1.53-.94,3.25-1.4,5.94-1.83,5.31-1,11.44-.19,17.42.11.82.22,1.62.33,2.41.17,1.24.4,2.86.57,4.18-.02.21-.03.41-.04.62-.13,2.92-.8,5.53-1.65,8.84l-.05.21c-.47,1.85-1.06,4.16-1.54,6.66-.01.06-.02.11-.03.17-.5,2.83-.76,5.58-.81,8.39-.73,15.77-.08,31.81.55,47.32.39,9.54.75,18.55.77,26.9,0,2.33.54,4.55,1.51,6.53-.18,2.87-.41,5.78-.64,8.77-.43,5.58-.87,11.32-1.04,17.14-.19.68-.39,1.31-.51,1.65-.65,1.33-1.11,2.74-1.35,4.21-.17,1.02-.31,2.14-.36,3.33-.73,2.06-1.01,4.25-.8,6.42-.8,2.24-1.93,6.03-1.37,10.8-.04.25-.08.5-.11.74-.18.48-.33.97-.46,1.47-.34,1.3-.49,2.6-.48,3.89-.4,2.33-.24,4.74.48,7.02.27.91,1.42,5.23,2.26,8.39l.18.68.24.91.59,2.2.31,1.28.35,1.46c.05.22.1.43.15.62-.02.79,0,1.57.06,2.34-1.07,2.63-1.39,5.57-.83,8.48-.25,1.6-.24,3.2.02,4.75-.71,1.95-1.04,3.74-1.27,5.04-.02.09-.03.19-.05.28-.46,1.46-.69,2.96-.7,4.46-.41.77-.79,1.61-1.14,2.52-.53.95-.96,1.96-1.27,3.01-1.64,5.5-.77,11.08,2.38,15.31.04.05.08.11.12.16,0,.04.02.08.02.11.19.85.35,1.5.53,2.11,2.1,7,7.86,10.46,13.11,11,1.15.24,2.21.32,3.13.32.58,0,1.16-.03,1.72-.1,1.86.78,4.02,1.32,6.49,1.32,6.06,0,14.01-3.68,16.46-14.05.47-1.98.52-3.98.2-5.89.3-.65.58-1.32.84-2.01.45-1.19.74-2.44.88-3.71,0,0,0-.01,0-.02.65-1.29,1.11-2.67,1.36-4.07.67-.53,1.3-1.13,1.88-1.79,3.44-3.88,5.2-9.14,5.38-16.06,1.16-1.81,1.95-3.89,2.25-6.15l.41-3.07c.19-1.4.17-2.81-.04-4.19.11-.79.17-1.62.18-2.49.5-3.53.04-7.76-.65-14.07-.1-.91-.2-1.84-.3-2.76-.13-1.32-.27-2.63-.4-3.89-.16-1.52-.37-3.46-.46-4.74.03-.16.06-.33.09-.49.14-.29.28-.58.41-.88.37-.87.66-1.76.86-2.67.29-.72.52-1.46.7-2.21,1.55-1.86,2.66-4.11,3.17-6.6.51-2.51.71-4.95.6-7.42,2.51-5.75,1.32-12.06.77-14.98,0-.03-.01-.07-.02-.1l-.12-.62c-.18-.9-.42-2.16-.54-2.98l1.36,2.77c2.83,5.85,5.96,11.36,8.67,16.06,1.84,3.19,4.69,5.46,7.91,6.62l2.6,3.57c2.28,3.27,4.52,6.01,6.5,8.44.76.93,1.51,1.85,2.25,2.79.03.03.05.07.08.1,2.81,3.5,5.31,6.64,7.63,9.61,2.55,3.26,6.21,5.21,10.06,5.66l2.51,3.11,1.02,1.26s.06.08.1.12c.69.83,1.3,1.57,1.87,2.22,1.6,4.17,4.44,8.5,7.74,13.54,2.3,3.51,5.85,5.76,9.71,6.5,1.49.48,3.05.73,4.62.73,1.98,0,3.97-.39,5.84-1.19,4.56-1.93,7.88-5.99,8.86-10.85.89-4.41,1.84-9.43,2.9-15.34.98-5.44,1.89-10.73,2.7-15.71l1.89-11.19,2.85-16.93c1.07-1.81,1.74-3.83,1.98-5.93l.23-2.04c.5-4.43.98-8.68,1.41-12.95.41-.85.79-1.77,1.13-2.78.17-.51.33-1.03.48-1.56,1.59-2.36,2.53-5.2,2.55-8.26v-.41c0-.36,0-.72.01-1.08.03-.79.01-1.37,0-1.87l-.02-.74c0-.77.01-1.59.05-2.5.12-2.15.26-4.29.44-6.39,0-.03,0-.05,0-.08v-.17c.36-4.39.75-9.31.28-14.56,3.57-32.13,5.08-65.62,4.38-96.96-.04-1.88-.43-3.69-1.12-5.36-.2-2.19-.44-4.32-.67-6.4-.21-1.81-.4-3.51-.56-5.23-.39-4.32-.64-9.11.21-14.64.26-1.66.23-3.34-.07-4.99-.46-2.54-.85-5.54-1.25-8.72-.99-7.78-1.88-14.8-4.41-20.49-.11-5.02-.55-8.84-.97-12.56-.38-3.36-.74-6.53-.88-10.83-.09-2.78-.94-5.4-2.37-7.64-.08-.43-.18-.87-.29-1.32-2.12-8.51-9.09-12.33-15.05-12.33,0,0,0,0-.01,0-5.2,0-11.71,2.83-14.69,10.73-2.27,5.35-2.69,8.83-2.93,11.93-.02.31-.06.73-.08.84h0s-.05.21-.27.74c-1.04,2.49-1.36,5.17-1.02,7.75-4.7,30.2-8.1,59.94-10.56,82.78-.06.56-.09,1.13-.09,1.69.07,12.55-1.37,26.34-2.76,39.68-.67,6.41-1.36,13.03-1.89,19.54,0,.04,0,.09-.01.13l-2.17,29.78c-.12-.19-.23-.37-.34-.55l-2.76-4.59-.97-1.63-1.62-2.72s-.02-.04-.04-.06c-.77-1.27-1.38-2.35-1.89-3.31-.03-.05-.05-.1-.08-.14-2.12-3.91-3.01-5.72-3.36-6.48-.36-1.38-.93-2.7-1.67-3.93-.12-.19-.28-.5-.44-.81-.64-1.9-1.28-3.9-1.93-6.06l-.07-.25c-.32-1.06-.62-2.06-.89-3.03l-.89-3.56-.52-2.18-1.27-5.38s-.02-.07-.03-.11c-.31-1.26-.58-2.67-.87-4.15-.19-.99-.39-1.98-.6-2.96l-1.14-5.47-.39-1.86-.19-.99c-.41-2.11-.84-4.3-1.31-6.47-.49-2.26-1.04-4.58-1.73-7.31-.62-2.64-1.27-5.05-1.98-7.38-.4-1.32-.99-2.58-1.74-3.75-.62-.96-1.26-2.01-1.94-3.12-.39-.63-.77-1.25-1.16-1.87l-.29-.48c-.39-.64-.78-1.28-1.19-1.93-.35-1.39-.82-2.59-1.29-3.58.64-4.25.79-9.06-.46-13.39-.79-2.77-2.02-4.98-3.51-6.73-.33-2-.81-3.93-1.28-5.58l-.32-1.76-.37-2-17.11-92.68c-1.32-7.13-7.54-12.28-14.74-12.28h0ZM443.68,433.63c0-.09,0-.17.01-.26.1.03.2.07.29.1l-.31.16h0Z"/>
        <path d="M177.2,193.59c.85,0,2.03,5.13,3.2,5.13.17,0,.35-.11.52-.38,2.08,8.48,4.44,11.73,6.11,20.42,4.21,2.52,6.93,13.14,10.4,20.38.24,10.77,4.91,17.96,7.36,26.5l.6-.71c6.57,24.44,11.78,49.77,15.84,73.71,3.22,6.22,3.14,13.4,6.23,19.96-.27-.56-.45-.8-.58-.8-.58,0,.07,4.98-1.31,4.98-.04,0-.09,0-.14-.02l2.6,9.22c-.37.7-.71,1.8-.49,3.17,1.46,9.82,4.73,22.34,6.06,33.38l.71-1.3c.27,2.67.55,5.66-.57,5.66-.11,0-.22-.03-.36-.08,1.83,3.95,3.25,12.8,6.55,16.15l.16,4.3c.62-3.66,1.45-4.07,2.09-5.67,2.54,8.02,5.7,16.21,9.1,25.24q-.12-3.82-.24-7.64c.23,2.28.43,4.52.61,6.79.24,3.91.83,9.39,1.59,15.83.75,6.43,1.63,13.82,2.3,21.38.18,1.88.31,3.8.46,5.68l.14,1.8c.06.81.11,1.62.17,2.43.11,1.61.22,3.21.33,4.79.19,3.16.21,6.22.32,9.21,0,2.95-.08,5.78-.11,8.52-.14,2.68-.33,5.21-.49,7.65-.22,2.37-.55,4.54-.79,6.62-.07.51-.12,1.04-.2,1.52-.11.45-.23.88-.34,1.31-.22.86-.44,1.69-.64,2.48-.21.79-.4,1.55-.59,2.28-.08.39-.23.66-.35.95-.13.29-.25.57-.37.85-.91,1.91-1.68,4.08-2.77,5.5l-1.5,2.38c-.49.8-1.04,1.45-1.61,2.14-1.14,1.36-2.42,2.65-3.94,3.87-1.52,1.2-3.37,2.37-5.52,3.15-1.93.71-3.93,1.08-5.71,1.08-.2,0-.4,0-.6-.01-1.92-.01-3.61-.34-5.26-.77-.42-.12-.82-.21-1.24-.37l-1.28-.47-2.54-.93c-.43-.16-.84-.29-1.27-.48l-1.37-.73-2.72-1.43-1.35-.7c-.23-.13-.45-.21-.68-.37l-.71-.54c-.95-.71-1.89-1.41-2.84-2.12-.94-.69-1.89-1.39-2.83-2.08-.47-.31-.94-.75-1.42-1.18l-1.42-1.28c-1.91-1.69-3.8-3.37-5.69-5.05-1.88-1.82-3.77-3.62-5.68-5.41-1.93-1.75-3.8-3.64-5.7-5.51-1.94-1.87-3.88-3.74-5.8-5.6-.48-.47-.73-.69-1.04-.96l-.92-.8-1.85-1.58c-1.25-1.03-2.5-2.05-3.74-3.07-1.59-1.27-3.2-2.51-4.84-3.72-1.63-1.21-3.28-2.39-4.97-3.52-.03.02-.07.02-.1.02-.87,0-3.48-3.8-5.42-8.28-2.03-4.68-3.3-10.09-1.29-12.67-9.24-2.12-16.36-8.5-21.9-16.68-5.54-8.18-9.53-18.14-12.77-27.48,4.55,7.47,9.27,15,14.42,21.68l-1.4-2.21c1.27-.54,2.24-1.27.4-3.88-.15.09-.31.14-.49.14-1.51,0-3.95-3.15-5.41-4.72-2.39-2.96.56-4.46-2.77-7.01.55-.53,1.41.02,1.81-1.03-.77-2.65-.62-1.84-1.67-4.95-.77-1.08-1.47-1.37-2.06-1.37-.41,0-.77.14-1.06.26-1.42-1.19-2.43-2.83-2.43-3.98.26.06.49.09.68.09,2.76,0-1.06-5.65,1.8-5.65.15,0,.32.02.51.05l-1.55-2.81c0,1.4-.19,1.9-.9,1.9-.29,0-.67-.09-1.16-.23-1.96-3.79-2.94-6.52-4.42-10.41-.51-.38-.71-.45-.85-.45-.07,0-.11.02-.18.02-.11,0-.26-.05-.61-.33-1.19-3.98-8.61-7.56-7.31-10.1.06.02.12.02.17.02.03,0,.06,0,.08,0,.08,0,.14.01.2.01.27,0,.35-.12.37-.88-.11.07-.17.15-.26.22.01-.41-.07-.94-.12-1.42-1.98-1.41-3.15-2.86-3.89-4.97.11-.08.23-.12.36-.12.71,0,1.68,1,2.02,1.1l-.15.58c1.98,1.41,3.98,1.46,5.32,1.79-3.44-1.93-4.79-7-7.77-9.07l.07-1.84c-.1-.17-.19-.23-.26-.23-.11,0-.2.12-.27.14-.19-1.73,2.39-.07,1.53-2.1-.12.16-.26.22-.41.22-.56,0-1.32-.91-1.91-1.72.38-.9-3.04-4.4-6.51-7.95-3.49-3.54-7.04-7.11-7.05-7.99-.1-.12-.14-.18-.12-.18.11,0,2.42,2.28,4.8,4.73,1.54,1.57,3.12,3.22,4.15,4.4-.1-.54-.16-1.13-.62-1.81,0,0,0,0,0,0,.57,0-9.88-8.1-9.31-8.79-.08-.99-.39-2.14-1.52-2.77.13.42.04.53-.13.53-.11,0-.26-.05-.41-.1l-1.17-2.12c.28.32.47.43.64.43.35,0,.58-.48,1.2-.51,0-2.25-2.25-4.96-3.43-6.29l-.05.5c-1.3-1.53-2.55-3.56-2.28-5.1.06-.01.12-.02.17-.02,1.35,0,2.32,2.84,3.2,2.84.24,0,.46-.21.69-.73,2.23,2.94-2.31.02-.62,3.13.18.05.35.07.51.07,1.7,0,2.02-2.42,2.45-3.46-.78-1.69-2.33-4.55-3.42-6.6-.21-.12-.35-.16-.45-.16-.25,0-.18.31-.38.31-.11,0-.31-.09-.68-.38-1.29-1.27.05-3.1-1.79-3.69,1.05-.32.35-2.22.21-3.34-.01,0-.03,0-.04,0-.32,0-.5.26-.77.26-.23,0-.52-.19-1.01-.87-.64-2.13-.43-3.79.02-4.38-1.17-1.7-2.43-3.79-3.23-3.79-.36,0-.62.43-.73,1.5-1.45-3.1,1.34-3.24,4.01-3.4,2.51-.15,4.92-.32,3.78-2.75l-.63-.24c-.14-.56.21-.61.62-.63.09-.08.19-.12.28-.12.08,0,.16.02.24.07.28-.05.48-.19.42-.61-.04-.08-.03-.11.02-.11.32,0,2.32,1.44,4.39,2.87.34.23.68.46,1.02.69,0-.38.12-.68.49-.79.08-.24.24-.36.43-.36.38,0,.9.43,1.21,1.21-.06.47.1.98.26,1.45-.16-.09-.32-.19-.5-.28.17.1.34.21.5.3.31.9.62,1.66-.53,1.72,1.32,1.38,2.43,4.23,3.16,4.46.22,1.29,2.52,4.04,1.28,5.11-.75-1.37-1.27-2.83-2.68-3.77-.17,1.66,1.6,1.81.83,3.2.1,1.84,2.05,1.22,2.51,1.78,1,3.19,2.38,7.28,2.47,9.64,1.08,1.34,1.81,4.27,3.18,5.27-.55-4.22-1.67-8.9-2.65-12.59.42,1.28,1.49,2.36,2.72,3.14-.08-.01-.15-.02-.22-.02-.86,0-1.24.76-1.15,1.17l1.15,2.02-.25-.16,1.17,2.03c-.15-.51.1-.79.52-.79.49,0,1.2.38,1.78,1.23l.09.7c1.36.77,12.37,8.76,13.64,9.53.22.9.59,1.26.96,1.87l.13-.05c-1.46.75,2.11,2.69.66,3.72.55.91,1.21,1.79,1.81,1.79.07,0,.14-.01.2-.03,2.41,2.39.64,5.55,3.75,7.72l-1.22,1.21c1.15,2.15,1.71.14,2.99,3.27-.01,1.04.5,3.46,1.13,5.29,5.59,8.75,9.63,18.6,15.35,27.2,1.89-1.6-2.3-3.56-.67-4.5,9.58,14.63,22.79,30.45,33.21,46.1,4.01,5.43,4.12,11.17,8.2,16.77l-.82-.6c.32.82,3.5,3.17,6.54,5.54,3.06,2.36,5.96,4.79,5.75,5.89,3.43,4.84,1.37,4.44,5.61,8.22-.09.81-.08,1.58.18,2.31.13.37.32.73.59,1.08.32.41.51.59.75.7,1.15.62,2.15,1.17,3.08,1.63.85.78,1.65,1.78,2.57,2.71.88.94,1.88,1.82,2.78,2.21-.56-1.8-.49-3.07-.19-3.07.02,0,.03,0,.05.01.18.09.44.55.87,1.66.58,1.58,1.29,3.49,2.08,5.64.2.25.35.34.46.34.21,0,.3-.33.38-.61.06-.2.12-.37.23-.37.13,0,.33.23.72.94.13-1,.33-1.91.48-3.01.15-1.09.21-2.4,0-3.81.59-.89,1.02-1.48,1.55-1.98.54-.51,1.26-1.02,1.98-1.88.72-.85,1.44-2.06,1.96-3.67.54-1.62.88-3.56.91-5.79-.16-.75-.37-1.6-.59-2.36.28-.71-.33-3.89-1.5-8.28-1.16-4.4-2.89-10.01-4.66-15.65-3.57-11.3-7-22.71-5.87-23.59-.37-.51-.62-1.62-1.09-1.62-.03,0-.05,0-.08.01-1.73-7.79-.9-14.16-2.62-22.14,0,.19.02.47.07.75-3.72-14.95-5.98-32.16-9.08-45.46.39-3.12,1.56-5.9.44-9.3-3.99-14.36-8.15-32.63-11.44-49.61-2.92-15.8-4.04-32.56-7.82-47.61-2.37-23.04-3.79-45.92-3.8-68.9l-.62.22c1.53-5.12-.77-5.15,1.17-11.19.17-.78.36-1.09.57-1.09M86.98,340.15c.28-.12.13-.55.71-.86.65,1.02,1.97,2.79,1.8,3.7-.19-.09-.39-.18-.6-.28.52.69,1.16,1.28,1.63,1.54l-.09-.85c-.1-.04-.23-.09-.4-.16.82-.25-.25-2.16-.32-3.35-1.96-1.15-3.94-2.31-4.46-2.31-.13,0-.17.07-.08.24-.19-.39-.35-.99-.7-1.11-.1.29-.07.56.03.83.25.29.53.62.84.87l.05.34c.12.13.23.27.35.41.41.39.83.78,1.24.99M83.12,341.08c.29,0,.6-.18.85-.48-.3-.08-.55-.13-.74-.13-.35,0-.48.17-.27.59.05.01.1.02.16.02M85.17,337.82s0,0,0,0c0,0,0,0,0,0M177.2,178.59c-6,0-12.85,3.74-15.03,12.08-1.5,4.93-1.49,8.39-1.21,11.37-.72,2.73-.65,5.56.14,8.17.17,20.78,1.44,42.38,3.86,65.88.07.71.2,1.42.37,2.11,2.06,8.21,3.28,17.18,4.57,26.68.89,6.55,1.81,13.32,3.05,20.01,0,.04.02.08.02.12,3.43,17.72,7.63,35.94,11.54,50.13-.04.22-.09.45-.13.66-.18.93-.41,2.08-.57,3.41-.22,1.75-.12,3.53.28,5.26,1.32,5.65,2.5,12.2,3.75,19.13,1.59,8.79,3.23,17.88,5.39,26.55.05.21.11.42.17.62.36,2.25.5,4.51.66,7.04.24,3.89.52,8.3,1.64,13.35.21.93.5,1.83.87,2.69.02.17.05.34.08.51.29,1.83.79,4.03,1.55,6.91,1.31,4.92,3.21,11.03,4.89,16.37.39,1.25.79,2.52,1.18,3.78-1.31-1.14-2.6-2.14-3.72-3-.48-.38-.97-.75-1.45-1.12-.5-.38-1.11-.85-1.67-1.3-.61-1-1.11-2.31-1.85-4.32-1.22-3.3-2.73-7.39-5.83-11.69-5.33-7.98-11.26-15.89-16.99-23.54-5.85-7.81-11.38-15.19-15.98-22.2-1.22-1.86-2.79-3.37-4.57-4.48-.68-1.28-1.36-2.58-2.06-3.91-2.1-4.01-4.26-8.14-6.75-12.23,0,0,0,0,0-.01-.1-1.65-.47-3.28-1.1-4.82-.32-.79-.67-1.53-1.06-2.24-.46-1.94-1.29-3.75-2.45-5.35-.53-2.19-1.61-5.23-4.06-8.18-.19-.72-.43-1.43-.73-2.13-.41-.96-.91-1.86-1.49-2.69-1.22-2.42-3.09-4.48-5.42-5.94-.72-.48-3.34-2.34-5.27-3.72-2.19-1.55-3.78-2.69-4.98-3.53-.03-.03-.06-.07-.08-.1-.8-2.64-2.32-5.06-4.47-6.94-.6-.93-1.29-1.78-2.06-2.54-.47-1.26-.98-2.29-1.36-3.02-.47-1.3-1.1-2.52-1.89-3.63-.08-.36-.17-.73-.28-1.11-.17-1.16-.47-2.31-.91-3.41-2.29-5.75-7.24-9.69-12.96-10.49-2.51-1.53-5.03-2.55-8.5-2.56h0c-3.03,0-5.96.92-8.41,2.57-1.67.88-2.96,1.95-3.93,2.96-3.31,1.04-6.97,3.13-9.51,7.4-2.87,4.83-3.05,10.74-.49,16.22.78,1.67,1.83,3.14,3.09,4.37.02.08.05.16.07.24.34,1.14.82,2.24,1.42,3.27.11.43.23.86.38,1.28-.11.41-.2.82-.27,1.25-.63,3.59-.39,8.93,3.76,14.96.19,1.99.77,3.98,1.79,5.83l1.17,2.12c.71,1.3,1.61,2.47,2.65,3.49.21.33.44.67.68,1,1.82,3.17,4.86,6.25,9.13,10.58l.19.19c.91.93,2.19,2.24,3.17,3.29.11.75.28,1.49.51,2.21.05.29.11.58.18.87-.37,2.39-.17,4.89.67,7.29.69,1.96,1.58,3.76,2.67,5.42.47,2.73,1.63,5.41,3.45,7.85,1.43,1.91,3.06,3.42,4.37,4.63.29.27.67.62.97.91.71,1.43,1.64,2.73,2.76,3.87.7,1.77,1.47,3.59,2.45,5.61-.07.58-.1,1.16-.09,1.75,0,1.68.28,3.38.79,5.05-.3,2.25-.09,4.59.7,6.86,3.16,9.1,7.66,20.85,14.52,30.99,5.5,8.12,11.86,14.22,19.01,18.25.56,2.63,1.47,5.5,2.84,8.65,3.57,8.23,7.61,13.4,12.43,15.77.92.65,1.88,1.33,2.88,2.08.03.02.06.04.09.06,1.41,1.03,2.84,2.13,4.25,3.26l3.56,2.92,1.67,1.42.83.73.12.11q.18.16.28.25s.09.08.13.13l3.15,3.04,2.6,2.51c.39.38.78.77,1.16,1.15,1.54,1.52,3.12,3.09,4.83,4.65,1.78,1.67,3.6,3.41,5.42,5.16.16.15.32.3.48.44l1.1.98,4.55,4.04,1.34,1.2.04.04c.63.58,1.55,1.42,2.77,2.27l2.58,1.89,2.76,2.06.7.52c.23.17.46.34.7.5.88.58,1.63.97,1.99,1.15.03.01.06.03.08.04l1.32.69,2.66,1.4,1.34.71c.33.17.66.33.99.48.79.35,1.46.58,1.86.73l.15.05c.07.03.09.04.16.06l2.54.93,1.25.46s.05.02.07.03c.91.33,1.68.54,2.14.66l.17.05c.07.02.15.04.22.06,1.96.52,4.97,1.2,8.67,1.27.33.01.67.02,1.01.02,3.53,0,7.28-.69,10.83-1.98,3.35-1.21,6.6-3.04,9.65-5.44.04-.03.07-.06.11-.09,2.2-1.76,4.18-3.7,6.06-5.94.05-.06.1-.12.15-.18l.19-.23c.63-.77,1.57-1.92,2.52-3.45l1.19-1.89c1.57-2.23,2.57-4.52,3.32-6.22.18-.42.36-.83.56-1.24.06-.13.12-.26.18-.39l.32-.73.05-.12s.02-.05.03-.07c.38-.85.83-1.96,1.18-3.39l.23-.88.3-1.17.65-2.52.34-1.33c.1-.41.19-.82.26-1.24.11-.65.18-1.22.23-1.65l.04-.36c.01-.08.02-.16.03-.24.08-.66.16-1.32.25-2,.19-1.48.41-3.15.58-4.98.01-.16.03-.31.04-.47.05-.79.1-1.6.16-2.42.12-1.72.24-3.5.34-5.39.01-.2.02-.4.02-.61.01-.92.03-1.84.05-2.78.03-1.9.07-3.87.07-5.95,0-.17,0-.34,0-.51-.04-.99-.06-2-.09-3.01-.05-2.09-.11-4.25-.25-6.57,0-.04,0-.08,0-.12l-.03-.38-.3-4.41-.04-.52-.13-1.91c0-.06,0-.11-.01-.17l-.14-1.8-.1-1.26c-.11-1.49-.23-3.04-.38-4.61-.62-6.95-1.41-13.7-2.1-19.66l-.24-2.06c-.62-5.26-1.28-11.15-1.52-15.03,0-.08-.01-.17-.02-.25-.21-2.68-.41-4.95-.64-7.13-.45-4.38-2.74-8.14-6.04-10.56-1.25-3.45-2.41-6.8-3.44-10.05-1.14-3.6-3.55-6.53-6.65-8.37-.08-.25-.15-.49-.21-.71-.07-.23-.14-.47-.21-.7.3-2.78.04-5.41-.17-7.53-.2-1.99-.79-3.87-1.69-5.56-.78-4.72-1.75-9.45-2.69-14.07-.81-3.94-1.57-7.71-2.14-11.07.49-2.34.41-4.79-.25-7.13l-1.07-3.79c1.47-3.72,1.46-8.01-.37-11.91-.8-1.7-1.33-4.03-1.94-6.72-.75-3.3-1.65-7.29-3.42-11.39-4.5-26.25-9.82-50.83-15.8-73.08-.51-1.91-1.38-3.66-2.54-5.18-.46-1.23-.92-2.43-1.38-3.61-1.91-4.9-3.42-8.77-3.52-13.45-.05-2.13-.55-4.23-1.47-6.16-.83-1.73-1.7-3.95-2.62-6.3-2.09-5.33-4.22-10.78-7.63-15.11-.9-3.5-1.89-6.24-2.79-8.74-.9-2.51-1.68-4.68-2.43-7.73-.71-2.89-2.24-5.44-4.34-7.39-.04-.08-.08-.15-.12-.23-2.9-5.35-8.06-8.54-13.82-8.55h0-.01Z"/>
        <path d="M294.02,148.05l.75,1.53c1.69-.3.34-1.52,2.76-1.52.02,0,.04,0,.07,0,.38.21,1.02.43,1.73.62.7.22,1.48.42,2.15.53,1.5-.25,3.02-.36,4.52-.36,1.98,0,3.95.18,5.86.46,3.38.49,6.59,1.23,9.72,1.65.09-2.5-2.61-.37-2.39-2.22,5.53.58,11.39,1.38,17.11,2.91,2.86.75,5.67,1.71,8.36,2.84,1.35.56,2.65,1.21,3.91,1.9,1.26.68,2.52,1.36,3.66,2.19,1.74,1.02,2.83,2.56,3.75,4.24.94,1.67,1.88,3.26,3.38,4.52l-.6-.09c.23.51,2.61.83,4.85,1.45,2.22.63,4.43,1.41,4.15,2.39,1.14,1.32,1.31,2.06,1.57,2.66.25.61.62,1.05,2.02,1.92-.36,1.32-.39,2.34.8,2.9,1.39.69,2.62,1.52,3.91,2.33,1.17,1.08,2.19,2.43,3.3,3.76,1.14,1.31,2.23,2.72,3.59,3.94.03-1.02.46-1.59.94-1.59.19,0,.39.09.58.28.32.33.61.95.69,1.91.07.97-.05,2.25-.51,3.85.7,1.55,2.64.65,2.44,2.45,1.9.55,3.87,1.71,5.74,2.75.54.89,1.01,1.85,1.44,2.85.4,1.02.71,2.1,1,3.21.61,2.2.85,4.61,1.11,7,.35,4.88.29,9.79.63,14.36.17.45.38.88.59,1.3-.29.45.23,2.19,1.14,4.64.42,1.24.9,2.65,1.41,4.14.51,1.51.96,3.12,1.45,4.74,1.84,6.49,2.63,13.26,1.32,13.52.26.36.24,1.05.78,1.08,0,2.26-.72,4.17-1.36,6.08-.74,1.89-1.43,3.77-1.75,6.02.05-.09.11-.24.15-.39-.21,2.13-.49,4.34-1.01,6.5-.25,1.09-.49,2.18-.79,3.26-.32,1.07-.64,2.14-.96,3.21-.65,2.13-1.44,4.18-2.12,6.18-.78,1.97-1.42,3.92-2.09,5.73-1.58,1.13-3.56,1.72-4.03,3.64-1.23,3.94-2.98,8.3-5.23,12.53-.57,1.06-1.15,2.12-1.73,3.19-.61,1.04-1.25,2.06-1.9,3.09-1.27,2.08-2.66,4.01-4.05,5.91-2.65,3.46-5.83,6.48-8.92,9.46-1.55,1.48-3.09,2.91-4.54,4.43-1.46,1.47-2.84,2.99-4.07,4.63-4.81,3.56-9.74,6.72-14.79,9.5-5.05,2.75-10.21,5.13-15.51,7.16l.43.48c-.3-.04-.55-.05-.78-.05-1.88,0-1.67,1.13-3.72,1.13-.35,0-.76-.03-1.26-.11-2.52-.03,1.39-3.31-.59-4.25,2.78-3.22,3.02-5.79,6.12-8.7-.55-1.99.02-4.02.9-6.06.87-2.06,2.05-4.13,2.72-6.21,2.35-1.08,3.72-2.89,4.72-4.9,1.03-2,1.74-4.16,2.87-5.95l-.66-.34c3.4-4.93,6.91-9.62,10.2-14.19,3.31-4.56,6.47-8.95,9.4-13.18-.11-1.85.58-3.14,1.18-4.5.54-1.28,1.14-2.55,1.04-4.19.05.35.17.47.33.47.43,0,1.18-.86,1.99-.86.24,0,.48.07.72.27.31-1.33.7-2.62.91-3.94.54-.01,1.19-.16,1.43-.67.51-.88.91-1.9,1.28-2.98.19-.54.38-1.08.57-1.64.16-.57.33-1.14.49-1.72.17-.57.34-1.15.52-1.72.16-.58.33-1.16.49-1.73.35-1.14.75-2.25,1.16-3.31l-1,.21c.4-.86.88-1.82,1.69-1.82.21,0,.43.06.68.2-.31-.97-.3-2.36-.43-3.74-.15-1.38-.6-2.78-1.75-3.74.31-.52.59-1.04.85-1.58-1.4,1.2-2.35,1.14-3.33,1.55-.57-3.32-1.85-6.71-3.51-10.12-.63,1.32-.56,1.32-1.25,2.62.27-.79.46-1.56.73-2.36,1.03-2.71,1.7-7.86,1.51-13-.05-2.58-.37-5.12-.67-7.38-.36-2.24-.72-4.19-.99-5.59-.75-5.09-2.25-10.25-5.04-14.46-2.75-4.2-6.73-7.47-11.7-8.54-.79-.16-1.59-.28-2.41-.36-.29-.01-.59-.02-.89-.02-.55,0-1.11.02-1.67.06-.09.1-.19.14-.3.14-.22,0-.48-.18-.73-.52-.4-.47-.82-1.26-1.12-2.29-.29-1.05-.53-2.24-.53-3.59,0-1.34.24-2.81.91-4.27-3.48,2.45-6.06,3.44-8.22,3.44-1.22,0-2.3-.31-3.32-.85-1.41-.77-2.72-1.99-4.05-3.42-1.33-1.44-2.7-3.11-4.13-4.71,2.91,1.06,5.74,2.37,8.61,3.2l-.82-.47c.51-1.23.9-2.42-.23-2.82-.26.79-.8,1.09-1.39,1.2-.59.12-1.22.07-1.66.1-1.16-.09-.66-2.54-1.64-2.54-.14,0-.31.05-.52.17.09-.75.51-1.06.46-2.02-.82-1.07-.59-.72-1.64-1.83-.04,0-.09,0-.13,0-.77,0-1,1.06-1.15,1.74-.25.13-.49.2-.71.2-.43,0-.78-.24-.98-.7.72-1.37.26-2.12-.27-2.84-.52-.72-1.1-1.44-.42-2.84-.44-.14-.88-.3-1.32-.42.65,1.15.56,1.59-.01,2.64-1.66-.61-2.79-1.38-4.52-2.26-.56.52-.12.56-.57.95-.21-.14-.42-.2-.64-.2-.71,0-1.49.61-2.14,1.14-.5.4-.95.75-1.34.75-.29,0-.54-.19-.76-.68.02-.07.02-.14.02-.2.04-.35.05-.44-.35-.9.02.13.06.22.08.32-.18-.2-.42-.39-.64-.58-.57.77-1.06,1.17-1.71,1.17-.2,0-.42-.04-.65-.12-.27-.81.39-1.3.45-1.59l.28.39c.68-1.08.82-2.75,1.08-3.77-.6,1.01-1.49,1.26-2.39,1.47-.91.19-1.82.44-2.29,1.28-.33-.27-.66-.52-.99-.78-.22.05-.04.3,0,.43-.95-.49-.18-2.11-1.27-2.12.45.75-.16,1.17-.67,1.46-.08-.09-.18-.13-.3-.13-.73,0-2.18,1.51-3.37,3.17-.34.49-.67.97-.99,1.44-.22.33-.42.64-.61.94.14.27.35.54.6.79-.25-.1-.5-.13-.74-.13-.11,0-.22,0-.32.02-.29.39-.53.68-.72.76,0,.25-.02.5-.03.75l-.13-.13-.03,1.22c.1-.2.31-.29.56-.29.49,0,1.11.37,1.19,1.02l-.27.36c.41.34,1.95,2.05,3.53,3.75,1.58,1.7,3.18,3.37,3.55,3.7-.24.51-.09.76-.07,1.15h.14c-1.64.12.53,1.8-1.23,2.09.04.66.23,1.31.91,1.31,0,0,0,0,0,0,.97,1.75-2.1,3.16-.4,4.98l-1.63.46c-.01,1.43,1.42.39,1.06,2.44-.5.59-1.21,2.09-1.52,3.29.7,6.27-.61,12.9.05,19.11,2.42-.5-.21-2.57,1.65-2.75.56,5.29,1.52,10.98,2.46,16.79.46,2.9.91,5.84,1.26,8.76.32,2.93.54,5.85.59,8.72.39,4.1-2.66,7.31-2.43,11.51l-.34-.55c-.4,1.08,5.16,8.67,3.51,9.76-.07,3.66-1.44,2.8-.31,6.15-1.12.82-1.78,1.66-1.19,2.95.63,1.53,1.2,3.04,1.74,4.56.56,3.36.54,7.22,1.66,10.94.41-.71.9-1.04,1.29-1.04,1.04,0,1.42,2.34-1.88,6.1-.08,1.85,2.04,1.91,1.12,3.54,1.51,1.41,2.78,3.38,4.17,5.11,1.38,8.5-2.47,19.29-2.59,29.33.12.51.28,1.01.45,1.48-1.27,1.81,9.22,27.87,6.77,28.93.3.31.41.98.89.98.03,0,.05,0,.08,0,.8,4.66-.8,8.46,0,13.23.01-.11.03-.28.02-.45,1.97,8.92,2.35,19.18,4.06,27.08-.7,1.86-2.14,3.53-1.37,5.54,1.24,4.27,2.49,9.09,3.65,14.1,1.17,5.01,2.2,10.22,3.15,15.21.8,4.65,1.15,9.45,1.65,14.2.51,4.74,1.2,9.4,2.57,13.78.38,6.79.72,13.52.76,20.29.01,6.78-.05,13.53-.48,20.36l.62-.18c-1.7,3.17.57,2.99-1.56,6.75-.2.51-.41.71-.63.71-.82,0-1.78-2.8-2.9-2.8-.19,0-.39.08-.58.27-1.76-4.9-3.99-6.66-5.3-11.75-2.04-.61-3.64-2.46-5.1-4.68-1.44-2.22-2.75-4.82-4.29-6.9.34-6.48-3.97-10.55-5.83-15.61l-.64.45c-5.01-14.47-8.26-29.67-10.12-44.06-2.61-3.65-1.91-7.91-4.22-11.8.15.21.28.3.38.3.58,0,.42-3.03,1.8-3.02.04,0,.08,0,.13,0l-1.66-5.54c.43-.42.89-1.09.8-1.91-.46-5.91-2.37-13.45-2.47-20.1l-.84.78c.03-1.6.09-3.41,1.19-3.41.11,0,.22.02.34.05-1.37-2.38-1.79-7.71-4.65-9.75l.35-2.59c-1.05,2.2-1.91,2.44-2.73,3.4-1.58-4.84-3.74-9.79-6-15.27q-.34,2.3-.69,4.61c.04-1.37.12-2.73.22-4.09.45-4.72.4-13.22.28-21.7-.14-8.46-.35-16.89-.21-21.44.72-16.44,1.15-32.36-5.51-46.09-1.05-2.17-2.28-4.29-3.7-6.36-.79-.01-.77-2.77.21-5.74.96-2.96,2.89-6.15,5.99-7.02-6.51-3.47-8.91-8.57-9.26-14.27-.36-5.69,1.4-12.01,3.4-17.89.06,5.13.21,10.3,1.04,15.13l-.03-1.52c1.36,0,2.56-.17,2.37-2.03-.05,0-.1,0-.14,0-1.53,0-2.02-2.57-2.48-3.86-.49-2.16,2.78-2.34,1.25-4.48.12-.03.23-.04.34-.04.32,0,.6.09.92.09.24,0,.49-.05.81-.23.7-1.64.42-1.16,1.11-3.12-.17-1.22-1.21-1.29-1.95-1.29-.05,0-.1,0-.15,0-.63-.97-.67-2.09-.1-2.73.39.18.71.25.99.25,1.73,0,1.65-2.91,3.43-2.91.26,0,.55.06.89.2l.06-1.91c-.56.65-.94.92-1.39.92-.33,0-.7-.15-1.21-.41.19-2.54.69-4.28,1.3-6.79-.61-.77-.58-.14-1.04-.76.92-2.51-3.78-5.99-1.44-7.2.07.04.14.05.21.06.12.03.21.06.3.06.17,0,.31-.1.61-.45-.13.02-.22.05-.33.08.2-.23.38-.55.57-.84-1.05-1.19-1.39-2.26-1.03-3.62.06-.01.12-.02.18-.02.73,0,1.16.91,1.43,1.05l-.41.31c1.05,1.2,2.77,1.61,3.79,2.06-2.08-1.78-.85-4.96-2.49-6.74l.93-1.05c0-.15-.08-.19-.17-.19s-.19.03-.25.03c.2-.32.47-.4.77-.4.32,0,.65.1.94.1.31,0,.55-.12.63-.6-.12.04-.22.06-.32.06-.59,0-.85-.74-1-1.39.75-.44-.56-3.13-1.9-5.9-.51-1.06-1.02-2.13-1.43-3.08-.82-.4-1.72-1.08-2.59-1.8-1.27-1.04-2.49-2.14-3.42-2.14-.4,0-.74.2-1.02.69l.26.49c-.1.1-.2.15-.3.15-.18,0-.36-.14-.54-.3-.23-.05-.34-.16-.4-.32-.13-.09-.26-.15-.4-.15-.1,0-.21.04-.32.12-.02.03-.04.05-.06.05-.21,0-.58-1.96-.87-4.15-.04-.32-.07-.66-.1-.98-.14.06-.28.1-.42.1-.16,0-.31-.05-.47-.16-.04,0-.08.01-.12.01-.59,0-.8-.78-.21-1.53.39-.13.68-.44.95-.72.02.14.04.28.07.43-.02-.15-.04-.3-.06-.44.31-.33.58-.64.9-.64.21,0,.43.13.7.47.33-1.44,1.96-3.07,1.8-3.67.45-.24.94-.97,1.51-1.53.39-.39.82-.67,1.28-.67.21,0,.42.06.63.19-.76.8-1.65,1.52-1.69,2.84,1.2-.18.77-1.32,1.65-1.32.11,0,.25.02.42.06,1.38-.33.03-1.83.28-2.29,2.07-1.28,4.79-2.61,6.56-2.65.39-.57,1.27-.95,2-1.41,0-.02,0-.03,0-.04.24-.43.54-.77.86-1.05-2.97.21-6.27,1.15-8.76,2.37.87-.48,1.32-1.49,1.57-2.57.19.79.89,1.15,1.26,1.15.04,0,.08,0,.12-.01l1.23-1.04-.05.22c.41-.35.83-.68,1.26-1-.07.02-.13.03-.19.03-.66,0-.98-1.2-.08-2.04l.53-.07c.06-.31.33-1.13.77-2.18.44-1.06,1.02-2.4,1.69-3.68,1.29-2.63,2.93-5.11,3.22-5.66.73-.04,1.01-.32,1.5-.55l-.04-.13c.14.32.32.44.52.44.52,0,1.21-.77,1.81-.77.24,0,.47.13.66.5.81-.32,1.59-.77,1.43-1.45.52-.45,1.09-.58,1.67-.58.5,0,1.01.1,1.51.18.37.06.74.11,1.1.11.68,0,1.34-.18,2-.87M293.51,172.95s-.01-.03-.02-.03c-.14,0-.85,1.4-1.41,2.85-.16.37-.31.75-.45,1.1.34-.56.65-1.09.93-1.58-.05.11-.08.23-.09.35.08-.14.16-.27.25-.41.53-.78,1.12-1.58,1.61-2.12.06-.06.11-.11.17-.17-.18-.04-.38-.11-.57-.11-.14,0-.27.03-.41.12M265.06,178.31c-.1-.08-.21-.12-.32-.12-.59,0-1.27,1.08-1.99,1.48.35,2.06.94,4.06,1.28,4.06.03,0,.07-.02.09-.06-.15.27-.43.59-.29.86.28-.05.45-.17.56-.34.03-.28.08-.58.05-.89l.21-.16c.01-.12.03-.25.05-.37.01-.43.02-.87-.09-1.24-.07-.04-.14-.05-.22-.05-.08,0-.18.01-.29.01-.14,0-.32-.03-.56-.14.32-.84.87-2.38,1.64-2.54.05.16.09.34.15.53.2-.6.26-1.24.2-1.67-.2.1-.4.21-.59.31.03.09.07.2.11.34M289.46,179.27s.06,0,.08,0c.22,0,.3.17.35.36.24-.36.47-.72.7-1.07-.15-.04-.3-.06-.43-.06-.4,0-.72.19-.7.77M288.4,181.8c.45-.62.88-1.25,1.3-1.88l-.64.4c.27-.47-.31-.7-.7-1.33-.04.91-.55,2.12.03,2.81M267.6,184.14c.1,0,.18-.06.25-.2-.17-.25-.54-.44-.98-.52.27.44.52.72.73.72M273.3,187.62s-.04-.06-.06-.09c-.02-.04-.05-.08-.07-.12.03.08.08.15.13.21M274.96,192.05c.16-.33.4-.68.32-1.16,0,0,.01,0,.02,0,.17,0-.6-1.13-1.5-2.51-.04,0-.09,0-.13,0-.11,0-.22,0-.34-.03.04.09.09.19.13.28.58,1.25,1.15,2.52,1.5,3.41M264.16,183.62s-.01.03-.02.04c0-.01.02-.03.02-.04M361.56,283.86c.01.11.02.22.03.32-.01-.09-.02-.2-.03-.32M289.23,427.79c.09.14.18.28.27.43-.08-.11-.17-.25-.27-.43M294.02,133.05c-1.42,0-2.82.2-4.17.59-.14,0-.29,0-.44,0-2.94,0-5.73.69-8.22,2.01-1,.15-2.01.4-3,.76-.68.25-1.33.54-1.95.87-3.13,1.27-5.78,3.57-7.47,6.59-.06.11-.14.23-.23.38-.72,1.18-2.06,3.36-3.26,5.79-.46.89-.91,1.83-1.38,2.87-2.26,1.48-4.11,3.57-5.31,6.06-.42.56-.8,1.14-1.14,1.75-.24.21-.47.44-.7.66h0c-.37.36-.68.71-.94.99-1.04.94-1.94,2.01-2.68,3.17-.18.15-.36.31-.53.47-1.1.8-2.09,1.76-2.94,2.84-3.91,4.98-4.66,11.51-1.97,17.05.34.7.73,1.37,1.16,2,.1.39.2.75.31,1.1,1.39,4.41,4.54,7.84,8.5,9.58-.17.47-.32.94-.45,1.43-.38,1.45-.58,2.89-.62,4.32-.07.21-.13.41-.2.62-1.64,5.62.19,10.31,1.56,12.96-.64.81-1.19,1.68-1.65,2.58-1.62,1.6-2.89,3.58-3.66,5.85-2.36,6.97-4.7,15.23-4.16,23.67.33,5.38,1.82,10.29,4.36,14.57-.13.36-.26.72-.38,1.09-1.73,5.24-2.85,12.77,1.53,18.92.31.44.65.86,1,1.26.62,1,1.19,2.03,1.73,3.13,4.86,10.02,4.72,22.98,4.02,38.88,0,.07,0,.14,0,.21-.12,4-.01,10.06.12,17.07.03,1.67.06,3.37.09,5.07.07,4.6.22,15.46-.22,20.03-.01.12-.02.25-.03.37-.12,1.74-.2,3.23-.25,4.67-.17,5.22,2.35,9.92,6.34,12.74.39,1.05.75,2.07,1.08,3.07.91,2.77,2.58,5.17,4.76,6.95,0,.14,0,.28,0,.42-.04,2.24.43,4.41,1.31,6.38.31,2.64.72,5.19,1.1,7.56.21,1.31.42,2.58.59,3.76-.51,1.95-.62,4-.32,6.03-1.63,4.07-1.46,8.8.83,12.9.1.18.2.35.3.52.1.36.23.98.34,1.45.44,2.02,1.04,4.77,2.46,7.77,2.2,15.62,5.7,30.44,10.43,44.12.73,2.11,1.91,4,3.43,5.56.26.47.51.91.75,1.34.54.95,1.26,2.22,1.48,2.82-.12,3.39.91,6.72,2.93,9.45.46.62,1.12,1.74,1.75,2.82.59,1.01,1.26,2.15,2.01,3.3.02.03.04.07.06.1.79,1.2,2.49,3.78,5.24,6.21.74,1.62,1.49,2.95,2.12,4.08.75,1.33,1.12,2.01,1.46,2.96,1.23,3.43,3.66,6.25,6.76,8,3.05,2.96,6.69,4.46,10.85,4.46,5.96,0,11.32-3.46,14.02-8.92,1.99-3.73,2.56-6.85,2.6-9.41.72-2.5.76-5.13.17-7.62.25-5.81.28-11.43.27-16.71,0-.02,0-.05,0-.07-.04-6.75-.34-13.29-.78-21.04-.07-1.23-.29-2.45-.66-3.63-1.06-3.39-1.59-7.4-1.97-10.88-.11-1.08-.22-2.16-.32-3.25-.37-3.84-.76-7.82-1.46-11.91-.02-.1-.03-.19-.05-.29-.92-4.78-2.02-10.4-3.28-15.79-.88-3.81-1.83-7.59-2.79-11.11.97-2.66,1.17-5.55.56-8.32-.67-3.09-1.14-7.02-1.63-11.19-.6-5.05-1.22-10.26-2.34-15.46.02-.57.09-1.33.16-2.07.24-2.62.58-6.21-.15-10.49-.06-.34-.13-.68-.21-1.02.38-.12.74-.25,1.08-.38,2.59-.39,5.03-1.46,7.07-3.07,4.42-1.87,8.75-3.95,12.93-6.23.02-.01.04-.02.06-.03,5.68-3.12,11.22-6.68,16.49-10.59,1.16-.86,2.2-1.89,3.07-3.05.69-.92,1.57-1.92,2.71-3.06.09-.09.18-.18.26-.27.91-.97,2.01-2,3.17-3.1l.81-.76s.04-.04.07-.06l.37-.36c3.19-3.07,6.81-6.56,10.04-10.77.07-.09.14-.19.21-.28,1.68-2.3,3.2-4.41,4.7-6.88l.11-.17c.63-1.01,1.28-2.05,1.95-3.17.09-.16.18-.32.27-.48l.82-1.52.9-1.67s.04-.07.05-.1c1.89-3.55,3.58-7.36,4.98-11.18,2.32-1.73,4.09-4.1,5.1-6.81.28-.75.55-1.53.83-2.32.38-1.09.75-2.12,1.12-3.07.1-.24.18-.48.27-.73.22-.65.45-1.3.69-1.96.5-1.39,1.06-2.98,1.58-4.68,0-.02.01-.03.02-.05l.55-1.82.42-1.38c.02-.07.04-.13.06-.2.36-1.25.62-2.39.85-3.39l.13-.55c.74-3.08,1.1-6.04,1.32-8.31.15-.47.37-1.05.65-1.79.09-.24.18-.48.26-.73l.17-.49c.78-2.32,1.97-5.83,1.96-10.34,0-.74-.06-1.46-.16-2.17.16-3.77-.4-9.04-2.51-16.49-.02-.07-.04-.14-.06-.22-.13-.42-.25-.84-.37-1.26-.38-1.29-.77-2.61-1.24-4.01l-1.01-2.99-.39-1.14c-.05-.13-.09-.27-.14-.4-.1-.28-.19-.51-.26-.71-.1-1.16-.33-2.31-.71-3.42-.06-1.3-.1-2.67-.14-4.08-.08-2.54-.15-5.17-.35-7.92-.01-.18-.03-.37-.05-.55l-.04-.34c-.29-2.68-.62-5.71-1.5-8.94-.34-1.3-.82-2.99-1.52-4.79-.04-.11-.09-.23-.14-.34-.72-1.71-1.54-3.33-2.43-4.81-1.35-2.23-3.25-4.07-5.53-5.34l-.47-.26s-.04-.02-.05-.03c-.74-3.05-2.21-5.76-4.31-7.95-.04-.04-.08-.09-.13-.13-1.75-1.78-3.82-3.09-6.08-3.89-.81-.95-1.75-1.99-2.86-3.02-.53-.49-1.09-.94-1.69-1.35-.76-1.41-1.75-2.71-2.95-3.82-.09-.15-.18-.3-.28-.46-1.45-3.09-4.03-5.93-8-7.91-1.65-.82-3.37-1.41-4.82-1.84-1.55-2.6-3.97-5.89-8.02-8.45-1.73-1.19-3.38-2.09-4.74-2.82-1.9-1.03-3.62-1.86-5.3-2.56-3.38-1.42-6.85-2.6-10.33-3.51-7.08-1.89-14.07-2.77-19.36-3.32-.53-.06-1.06-.08-1.58-.08-1.66,0-3.27.27-4.77.78-.13-.02-.26-.04-.39-.06-2.88-.41-5.5-.61-8.02-.61-1.1,0-2.19.04-3.26.12-1.61-.59-3.31-.9-5.03-.91h-.18c-.64,0-1.27.03-1.88.09-.54-.06-1.09-.09-1.63-.09h0ZM314.18,198c.04-.16.09-.33.13-.49,1.82,1.92,4.29,4.26,7.53,6.02.06.04.13.07.19.1,2.09,1.09,4.26,1.84,6.5,2.24.34.5.69.99,1.07,1.45,3.11,3.89,7.61,6.11,12.41,6.11.73,0,1.45-.05,2.17-.15.66.18,1.52.97,2.25,2.08.01.02.03.05.04.07.87,1.31,2.04,3.82,2.7,8.35.03.22.07.45.11.67.21,1.11.54,2.85.88,4.94.24,1.75.48,3.73.51,5.47,0,.09,0,.18,0,.28.12,3.34-.31,6.32-.59,7.23-.05.14-.1.28-.15.42-.23.67-.4,1.26-.54,1.73-.05.18-.1.36-.16.55-2.06,5.97-.13,12.41,4.46,16.31.4,1.46,1.01,2.84,1.8,4.1-.04.51-.05,1.03-.03,1.54l-.06.2-.48,1.61c-.02.06-.04.13-.06.19l-.23.79c-.43.46-.84.94-1.21,1.45-3.91,2.51-6.54,6.77-6.87,11.6-.46,1.02-1.1,2.51-1.58,4.4-2.16,3.07-4.49,6.3-7.18,10.01-.01.01-.02.03-.03.04-1,1.38-2.01,2.77-3.04,4.18-2.4,3.29-4.87,6.68-7.34,10.26-.74,1.07-1.33,2.22-1.76,3.43-.08-1.26-.21-2.52-.42-3.8-.41-2.51-1.45-4.87-3.02-6.87,1.27-5.19-.02-9.24-.92-11.24-.53-1.18-1.2-2.27-1.98-3.25-.11-1.06-.25-2.19-.44-3.36-.13-.8-.33-1.59-.59-2.36.26-1.45.32-2.94.14-4.43.04-.22.08-.46.12-.69.92-3.26.88-7.16-.84-11.56-.4-1.02-.86-2.01-1.33-2.95.9-2.51,1.99-6.16,1.71-10.62-.07-2.96-.28-6.11-.66-9.62,0-.05-.01-.1-.02-.15-.38-3.2-.87-6.39-1.34-9.37l-.3-1.83c-.82-5.06-1.6-9.84-2.06-14.18-.2-1.88-.74-3.65-1.55-5.24.1-2.09.19-4.33.14-6.68.5-1.11.87-2.29,1.08-3.5.07-.41.13-.82.18-1.23.02-.08.05-.16.07-.24.37-1.31.55-2.64.56-3.97h0Z"/>
      </g>
    </g>
  </g>
</svg>